<svg xmlns="http://www.w3.org/2000/svg" viewBox="0 0 1919.5 544.16"><defs><style>.cls-1{fill:#e8e8e8;}</style></defs><title>Background</title><g id="Layer_2" data-name="Layer 2"><g id="Section_1" data-name="Section 1"><path id="Background" class="cls-1" d="M866.25,513.29c-36.91-.21-75.73-.47-115.38-.77-4.38,0-4.55-.21-4.58-4.95s0-9.56,0-14.34q0-6.33,0-12.66c0-.36,0-.72,0-1.08a9.47,9.47,0,0,0-.55-4.32.5.5,0,0,0-.32-.28,18,18,0,0,0-5.2-.65c-.93,0-1.85,0-2.77.08s-1.77.08-2.63.08c-.41,0-.82,0-1.22,0h0a.51.51,0,0,0-.37.15c-1.57,1.67-1.46,3.4-1.37,4.92,0,.36,0,.72,0,1.07,0,4.84,0,9.67,0,14.51,0,4.33,0,8.67,0,13s-.15,4.47-4.41,4.48H689.75l-49.62,0c-4.58,0-4.58,0-4.59-4.78,0-7.56,0-15.13,0-22.85v-9.6a.5.5,0,0,0-.42-.49,41.09,41.09,0,0,0-6.91-.55c-2.42,0-4.78.18-6.77.35a.51.51,0,0,0-.4.28,9.79,9.79,0,0,0-.8,5.07c0,.37,0,.74,0,1.1,0,8.8,0,17.44,0,27,0,1.76-.14,3-.87,3.73a3.56,3.56,0,0,1-2.61.79c-7.2,0-14.35-.06-21.5-.06q-12.51,0-25,.07a3.08,3.08,0,0,1-3.65-3.82c0-1.15,0-2.31,0-3.44,0-.56,0-1.12,0-1.68V367.72a.51.51,0,0,0-.5-.5h-76a.5.5,0,0,0-.45.28,10.4,10.4,0,0,0-.71,5.37c0,.5.06,1,.06,1.51q0,52.9,0,105.82v25.6c0,.67,0,1.34,0,2s0,1.37,0,2.05c0,1.78-.85,2.61-2.66,2.61l-12.47,0h-5.91a2.92,2.92,0,0,1-2.16-.69,3.14,3.14,0,0,1-.65-2.31c0-.64,0-1.27,0-1.91,0-.39,0-.77,0-1.16V477q0-78.24,0-156.47c0-.47,0-1,0-1.45a10.37,10.37,0,0,0-.77-5.52.5.5,0,0,0-.45-.28H346.11a.48.48,0,0,0-.4.2c-1.23,1.63-1.1,3.42-1,5.15,0,.5.08,1,.08,1.51q-.06,81.76,0,163.55v21.86c0,3.5,0,5.41-.8,6.2s-2.74.8-6.26.8H226.93c-3.31,0-5.13,0-5.87-.73s-.75-2.49-.75-5.7V481c0-31.34,0-63.75.09-95.62,0-4.39-1.38-6.77-5.13-8.75-24.08-12.71-48.27-25.83-71-38.17a8.53,8.53,0,0,0-4.14-1.25,7.76,7.76,0,0,0-3.81,1.11c-27.65,15.08-50.34,27.3-71.4,38.45-3.62,1.91-4.89,4.11-4.88,8.38.12,31.07.11,62.66.1,93.2v26c0,.5,0,1,0,1.5,0,1,0,2.07,0,3.11a3.56,3.56,0,0,1-.68,2.71,4.12,4.12,0,0,1-3.08.89c-7.55,0-15,0-22.55,0H4.27a19.08,19.08,0,0,1-2-.09C.63,512.26.48,511.36.5,510.7c0-.29.05-1.19,1.63-1.34,1.33-.13,2.7-.13,4-.13H20.79q14.64,0,29.28,0c.38,0,.73,0,1.08,0s.76,0,1.15,0a7.8,7.8,0,0,0,3.88-.89.51.51,0,0,0,.26-.44V382.82a.49.49,0,0,0-.5-.5h-.13a34.65,34.65,0,0,0-8.07,3.76c-.77.44-1.52.88-2.29,1.3a5.27,5.27,0,0,1-2.4.78c-.72,0-1.66-.26-2.64-2.25-1.08-2.22-2.28-4.42-3.44-6.55-.85-1.57-1.7-3.13-2.52-4.72-2-3.81-2-3.81,2-5.94q29-15.56,58-31,6.43-3.44,12.9-6.85c9.36-5,19-10.1,28.49-15.28a9.05,9.05,0,0,1,4.39-1.33,8.55,8.55,0,0,1,4.08,1.18c23.51,12.64,47.45,25.41,70.6,37.76l27,14.42c2.67,1.43,4.14,2.22,4.43,3.18s-.46,2.53-1.83,5.36l-.91,1.85c-1.25,2.56-2.54,5.21-3.69,7.88-.92,2.13-1.91,2.38-2.59,2.38a5,5,0,0,1-2.32-.77l-1.8-1a53.74,53.74,0,0,0-8.66-4.28.47.47,0,0,0-.17,0,.49.49,0,0,0-.5.5V508.33a.5.5,0,0,0,.5.5h57.34a.5.5,0,0,0,.5-.5V479.78a.52.52,0,0,0-.17-.38c-1.44-1.22-3.13-1.24-4.76-1.26a16.38,16.38,0,0,1-1.75-.09c-11-1.31-16.29-6.37-17.71-16.9-2.52-18.54,1.24-36.89,11.16-54.54a26.6,26.6,0,0,1,7.56-8.58,12.42,12.42,0,0,1,15.9.26,32.37,32.37,0,0,1,9.22,11.76c7.94,16.17,11.15,32.67,9.52,49.06-1.27,12.74-6.5,17.91-19.32,19.08-.34,0-.68,0-1,.05a8.79,8.79,0,0,0-4.09.91.49.49,0,0,0-.26.44v28.72a.5.5,0,0,0,.5.5h53.28a.51.51,0,0,0,.46-.29,10.83,10.83,0,0,0,.73-5.33c0-.43,0-.86,0-1.29q0-73.29,0-146.6V316.22c0-3.34,0-5.18.71-5.9s2.17-.69,5-.69h2.05c.34,0,.63,0,.93,0s.65,0,1,0a5.8,5.8,0,0,0,3.06-.76.48.48,0,0,0,.23-.31,36.22,36.22,0,0,0,.64-10.22c-.06-1.73-.12-3.51-.05-5.25a11.47,11.47,0,0,0-.09-1.77c0-.43-.09-.87-.1-1.3-.06-4.49.11-4.67,4.62-4.9.93-.05,1.91-.07,3-.07,1.51,0,3,0,4.54.09s3,.08,4.56.08h.56c9-.06,18.82-.1,30-.1q15.46,0,30.92.06l16.43,0c5.3,0,5.3,0,5.33,5.14,0,4.19,0,8.38,0,12.77v6a.5.5,0,0,0,.5.5h6.11c1.25,0,2.45,0,3.64,0a3.33,3.33,0,0,1,2.51.76,3.18,3.18,0,0,1,.7,2.41c0,1.43,0,2.89,0,4.29,0,.78,0,1.57,0,2.35V508.38a.51.51,0,0,0,.45.5,71.86,71.86,0,0,0,7.51.38c3.08,0,6-.18,8.25-.32a.52.52,0,0,0,.43-.32,13.19,13.19,0,0,0,.73-5.8c0-.46,0-.92,0-1.37q0-47.35,0-94.72V369.52c0-3,0-4.69.67-5.38s2.31-.68,5.28-.68l51.1,0h21.4c5.79,0,5.79,0,5.79,5.73v45.64q0,43.65,0,87.31c0,.42,0,.86-.05,1.29a8.81,8.81,0,0,0,.88,5.24.48.48,0,0,0,.43.25H616a.5.5,0,0,0,.5-.5V306.09a.49.49,0,0,0-.19-.39l-.3-.27a1.4,1.4,0,0,0-.85-.51c-3.16-.27-4.89-.42-5.61-1.19s-.72-2.38-.73-5.6c0-5,0-7.47.81-8.32.4-.4,1.06-.55,2.45-.55.56,0,1.2,0,1.95.05,1,0,2.21.08,3.61.08h.12q32.55,0,65.12,0h68.65c3.05,0,4.73,0,5.41.66s.67,2.29.68,5.25v2c0,7,0,7-7,7.89a.49.49,0,0,0-.43.49V508.52a.5.5,0,0,0,.5.5h54.38a.5.5,0,0,0,.5-.5V481.21a.48.48,0,0,0-.07-.26,2.77,2.77,0,0,0-2.05-1.23c-10.78-2-18.2-8.59-22-19.68-5.41-15.64-4.9-30.72,1.51-44.81,4.69-10.3,13.76-16.46,24.27-16.46a28.49,28.49,0,0,1,6.5.77c8.43,2,14.8,7.36,18.42,15.6,6.85,15.64,7,31.66.4,47.62-4,9.79-11.63,15.62-22.55,17.32a.51.51,0,0,0-.42.5v28.18a.5.5,0,0,0,.5.5h56.75a.51.51,0,0,0,.5-.5V368.27a.52.52,0,0,0-.25-.43,6,6,0,0,0-3.21-.72h-.76a6.83,6.83,0,0,1-1.35-.11c-.65-.13-1.48-.42-1.73-1a2.3,2.3,0,0,1,.49-1.91,14.93,14.93,0,0,1,1.78-2.06l.52-.54q3.43-3.63,6.89-7.24c5.34-5.62,10.88-11.43,16.25-17.2a7.85,7.85,0,0,1,6.27-2.73q32.8,0,65.59,0,37.68,0,75.35,0a7.78,7.78,0,0,1,6.35,2.61c5.48,5.92,11.13,11.87,16.6,17.62,2.4,2.53,4.81,5.06,7.2,7.59l.53.54c.94.94,1.83,1.83,1.76,3.24-.81,1.13-1.86,1.22-3.23,1.22h-.63a6.48,6.48,0,0,0-3.38.69.5.5,0,0,0-.25.43V508.72a.5.5,0,0,0,.5.5h39.22a.5.5,0,0,0,.43-.24,8.25,8.25,0,0,0,1-5.22c0-.36,0-.71,0-1.06,0-7.87,0-15.74,0-23.62,0-8.76,0-17.53,0-26.3,0-1,0-1.91,0-2.71,0-3,0-4.61.6-5.26s2.12-.64,4.55-.64H1108c.68,0,1.36,0,2,0s1.38,0,2.07,0a15.36,15.36,0,0,0,4.2-.48.5.5,0,0,0,.3-.23,8.2,8.2,0,0,0,.82-5c0-.46-.06-.91-.06-1.35q0-54.21,0-108.41V300.64c0-1.25,0-2.49.05-3.74l0-.83c0-1.75.82-2.53,2.56-2.53h1l1.39,0h117.78l1,0,1,0a8.72,8.72,0,0,1,3.87.79V443.69a.5.5,0,0,0,.5.5h15.41c2.81,0,4.36,0,5,.66s.63,2.25.63,5.16v18.44q0,17.26,0,34.53c0,.37,0,.73,0,1.1a10.6,10.6,0,0,0,.51,4.45.49.49,0,0,0,.47.32h48a.5.5,0,0,0,.5-.5V479.16a.52.52,0,0,0-.27-.45,13.06,13.06,0,0,0-5.5-1.12,21.41,21.41,0,0,1-3.06-.32c-9.48-1.95-13.85-6.35-15.58-15.69a67,67,0,0,1-.13-21.64,92.35,92.35,0,0,1,9.25-30.37,38.29,38.29,0,0,1,6.61-9.45c3.51-3.54,7.13-5.34,10.75-5.34s7.26,1.82,10.74,5.41a33.75,33.75,0,0,1,5.62,7.67,88.89,88.89,0,0,1,10.52,50.33c-1.19,13.26-6.4,18.4-19.91,19.63l-.86,0a7.34,7.34,0,0,0-3.77.92.5.5,0,0,0-.25.43v29.18a.5.5,0,0,0,.5.5H1370a.49.49,0,0,0,.41-.22,7.44,7.44,0,0,0,.94-5.07c0-.45-.06-.89-.06-1.33q0-36.57,0-73.13V404.47c0-3.1,0-4.81.71-5.5s2.47-.7,5.65-.7h25.79l25.78,0c.43,0,.84,0,1.26,0s.87,0,1.31,0a6.89,6.89,0,0,0,3.2-.67.37.37,0,0,0,.2-.19,8.05,8.05,0,0,0,.77-4.83c0-.45,0-.91,0-1.36q0-12.34,0-24.67,0-11.36,0-22.71c0-5.59,0-5.59,5.41-5.6H1518c5.49,0,5.49,0,5.5,5.41q0,10,0,19.93,0,14,0,27.95c0,.42,0,.86,0,1.29a8.27,8.27,0,0,0,.61,4.45.48.48,0,0,0,.19.21,6.78,6.78,0,0,0,3.48.8c.47,0,.93,0,1.4,0s.88-.05,1.32-.05l24.43,0H1582c3.06,0,4.74,0,5.43.67s.68,2.28.69,5.22v35.73q0,31,0,62.08c0,.42,0,.85,0,1.28a11,11,0,0,0,.71,5.3.49.49,0,0,0,.46.3h48.46a.5.5,0,0,0,.5-.5V481a.51.51,0,0,0-.28-.45l-.36-.21a3.42,3.42,0,0,0-1.08-.48c-11.6-2.13-19.36-9.49-23-21.89-4.3-14.42-3.8-28.25,1.48-41.1,4.59-11.19,14.23-18.14,25.14-18.14a27,27,0,0,1,9.94,1.94c8.16,3.23,13.85,9.75,16.92,19.36a61.59,61.59,0,0,1,0,38.78c-4,12-11.2,18.78-22.19,20.86a6.7,6.7,0,0,0-1.41.52c-.24.1-.48.22-.76.33a.48.48,0,0,0-.31.46v27.33a.5.5,0,0,0,.5.5h49.76a.5.5,0,0,0,.43-.24,8,8,0,0,0,.88-5c0-.45,0-.89,0-1.32q0-62.22,0-124.44v-24.3c0-.44,0-.88,0-1.32a20.15,20.15,0,0,0,0-2.8,4.06,4.06,0,0,1,.66-3.19c.64-.7,1.77-1,3.54-1l12.06,0q12.54,0,25.06-.05l13.48,0h6.17a.51.51,0,0,0,.4-.2,7.08,7.08,0,0,0,1.27-5.18c0-.35,0-.7,0-1,0-4.55,0-9.11,0-13.66s0-8.89,0-13.33.28-4.71,3.86-4.71h.89c9.84.17,19.86.19,29.54.21,10.39,0,21.13,0,31.7.24,2.61,0,5.28.08,8.16.08,8.13,0,16.42-.21,24.44-.4l5.05-.13c1.5,0,3,0,4.5,0,1.73,0,3.46,0,5.19,0,4.73.06,4.78.1,4.83,4.62,0,4.22,0,8.51,0,12.66v38.68q0,70.09,0,140.19c0,.37,0,.75,0,1.13a7,7,0,0,0,.63,4.1.44.44,0,0,0,.16.17,5.62,5.62,0,0,0,3.23.84c.42,0,.84,0,1.26,0s.8-.05,1.19-.05c6,0,11.94,0,17.88,0h16.34c.34,0,.69,0,1,0l.68,0c1.64,0,2.37.19,2.44,1.4a1.64,1.64,0,0,1-.33,1.29,3.55,3.55,0,0,1-2.45.53h-22.42c-5.68,0-12.41,0-19.31.07a3.82,3.82,0,0,1-2.8-.81c-.8-.8-.86-2.18-.86-4.05q.06-29.43,0-58.87V424.34a.5.5,0,0,0-.5-.5H1761a.5.5,0,0,0-.46.32,12.41,12.41,0,0,0-.59,5.16c0,.45,0,.89,0,1.33q0,11.94,0,23.88c0,16.88,0,34.33-.08,51.5a12.11,12.11,0,0,0,.16,1.81c.17,1.37.37,2.91-.28,3.66a2.15,2.15,0,0,1-1.69.56,1.74,1.74,0,0,1-1.39-.48c-.66-.72-.5-2.3-.37-3.69a14.74,14.74,0,0,0,.11-1.67c-.08-10.84-.07-21.87-.06-32.53V458.34c0-.4,0-.79,0-1.19a11.06,11.06,0,0,0-.54-4.72.55.55,0,0,0-.25-.27,8.3,8.3,0,0,0-3.76-.76c-.64,0-1.28,0-1.91.08s-1.19.08-1.77.08q-.42,0-.84,0h0a.51.51,0,0,0-.39.19,6.44,6.44,0,0,0-1.14,4.88c0,.38,0,.76,0,1.12q-.06,16.4,0,32.78v15.62c0,3.2,0,5-.75,5.68s-2.58.73-5.91.73h-5l-20.5,0c-2.78,0-4.31,0-4.94-.61s-.62-2.17-.62-4.78q0-10.59,0-21.17,0-13.6,0-27.22c0-.44,0-.88,0-1.32a11.44,11.44,0,0,0-.65-5.19.48.48,0,0,0-.31-.28,12.2,12.2,0,0,0-3.8-.52c-.73,0-1.47,0-2.19.08s-1.37.07-2,.07h-.22a.52.52,0,0,0-.38.17,6.21,6.21,0,0,0-1.23,4.9c0,.37,0,.73,0,1.08q0,13.92,0,27.84,0,10.53,0,21.07c0,5.89,0,5.89-5.64,5.89h-41.69l-59.92,0c-5.17,0-5.21,0-5.22-5.31q0-23.22,0-46.44,0-25.68,0-51.36c0-.52,0-1,0-1.55a12.39,12.39,0,0,0-.52-5.17.44.44,0,0,0-.17-.21,5,5,0,0,0-3.25-1c-.42,0-.85,0-1.27.06s-.8,0-1.19,0q-15.42,0-30.8,0h-21.81c-2.78,0-4.3,0-4.93-.61s-.61-2.08-.61-4.77q0-9.87,0-19.73,0-14.07,0-28.16c0-.4,0-.8,0-1.21a11,11,0,0,0-.58-4.82.48.48,0,0,0-.46-.31h-78.41a.52.52,0,0,0-.35.14c-1.29,1.28-1.17,2.91-1.06,4.35,0,.41.06.82.06,1.22q0,14.33,0,28.67,0,9.84,0,19.68c0,5.56,0,5.56-5.48,5.57h-57.75a.5.5,0,0,0-.47.31,13.64,13.64,0,0,0-.85,6.15c0,.43,0,.85,0,1.28q0,37.5,0,75v21.25c0,.46,0,.93,0,1.39,0,.73,0,1.46,0,2.18a3.51,3.51,0,0,1-.77,2.59,3.34,3.34,0,0,1-2.44.79l-.39,0H1270.1c-3,0-4.72,0-5.4-.68s-.69-2.32-.69-5.31q0-10.53,0-21.07,0-15.69,0-31.4c0-.37,0-.75,0-1.13a8.56,8.56,0,0,0-.85-4.91.49.49,0,0,0-.43-.26H1103.88a.51.51,0,0,0-.4.19,6.14,6.14,0,0,0-1,4.56c0,.41.06.82.06,1.22q0,16.62,0,33.25v20.24c0,5.26,0,5.26-5.17,5.36l-37.77.69-1.43,0c-3.71,0-3.82-.15-3.82-5.15q0-31.81,0-63.62,0-34.92,0-69.84c0-.41,0-.83,0-1.25a17,17,0,0,0-.49-5.43.48.48,0,0,0-.48-.36H871.83a.5.5,0,0,0-.5.5v79.38a.48.48,0,0,0,.25.43,2.78,2.78,0,0,0,1.4.41,4,4,0,0,0,2.39-1.1c.25-.19.5-.38.76-.54l2.61-1.56c8.33-5,16.93-10.15,25.29-15.41a6.81,6.81,0,0,1,3.64-1.26,6.94,6.94,0,0,1,3.69,1.28c6.9,4.36,14,8.65,20.86,12.8,3.5,2.12,7,4.23,10.48,6.36,4.14,2.54,4.14,2.54,1.55,6.83l-.66,1.09c-2.18,3.64-3.17,5.3-4.36,5.3-.89,0-2.13-.77-4.2-2.05-.74-.46-1.59-1-2.57-1.57-5.91-3.52-13.67-8.18-21.29-13.06a5.64,5.64,0,0,0-7,0c-4.54,2.88-9.22,5.71-13.75,8.45-3.48,2.11-7.08,4.29-10.6,6.48a8.22,8.22,0,0,1-3.91,1.63c-1.22,0-2.27-.78-3.29-2.46a.52.52,0,0,0-.43-.24h0a.5.5,0,0,0-.42.29,10,10,0,0,0-.82,5.13c0,.36,0,.71,0,1.06q0,10.88,0,21.76,0,10.52,0,21c0,4.6-.13,4.73-4.21,4.73Zm-183-39a15.06,15.06,0,0,0-5,.77.51.51,0,0,0-.34.47v32.68a.51.51,0,0,0,.43.5,39.67,39.67,0,0,0,5.77.57h0a13.73,13.73,0,0,0,5.09-.89.5.5,0,0,0,.32-.47V475.23a.5.5,0,0,0-.45-.5l-.81-.08A46,46,0,0,0,683.25,474.29Zm15.67,34.9c2.41,0,4.82,0,7.21,0l7.14,0c5.85,0,10.35-.1,14.6-.34a.51.51,0,0,0,.47-.47,88.42,88.42,0,0,0-.07-14.45.5.5,0,0,0-.5-.45H694.1a.51.51,0,0,0-.5.45c-.56,5.53-.73,9.94.15,14.81a.49.49,0,0,0,.49.41h0C695.81,509.19,697.37,509.19,698.92,509.19Zm-59.5-15.37a.48.48,0,0,0-.5.5c0,1.42,0,2.82-.07,4.18a39.94,39.94,0,0,0,.54,10,.5.5,0,0,0,.49.4h33.37a.5.5,0,0,0,.5-.46,56.3,56.3,0,0,0-.15-14.16.49.49,0,0,0-.49-.42Zm1072.69-42.07a.5.5,0,0,0-.5.5v56a.5.5,0,0,0,.5.5h29.32a.49.49,0,0,0,.49-.43c1.24-8.9.76-52.53-.62-56.25a.5.5,0,0,0-.47-.33ZM709,474.23c-6.11,0-10.82.13-15.27.44a.49.49,0,0,0-.47.5c0,1.42,0,2.82-.08,4.17a37.63,37.63,0,0,0,.59,10.11.49.49,0,0,0,.48.39h33.66a.5.5,0,0,0,.5-.5c0-1.32.06-2.6.11-3.86a39.3,39.3,0,0,0-.61-10.78.51.51,0,0,0-.49-.39H724.7c-2.63,0-5.24,0-7.86,0S711.61,474.23,709,474.23Zm-69.41.46a.5.5,0,0,0-.5.46,87.56,87.56,0,0,0,0,14.21.49.49,0,0,0,.5.46h33.77a.5.5,0,0,0,.5-.47l.07-1.2a56.34,56.34,0,0,0-.2-13,.49.49,0,0,0-.49-.41Zm178.46-21a1.49,1.49,0,0,1,1.13.7c.68.86.45,1.56-.91,2.8-.36.33-.71.67-1.06,1a15.35,15.35,0,0,1-2.7,2.27c-6.51,4-5.84,10.05-4.7,15.44a.49.49,0,0,0,.48.4h.06c8.79-.91,15.13-5.81,18.87-14.56,6.5-15.25,6.39-30.49-.35-45.31-4.21-9.28-11.57-14.18-21.28-14.18h-.45c-9.73.15-16.83,5-21.1,14.39-6.13,13.5-6.47,28.13-1,43.48a25,25,0,0,0,8.38,11.67c2.77,2.13,6.19,4.31,10.61,4.31l.93,0a.51.51,0,0,0,.45-.39,30.61,30.61,0,0,0,.46-7.63c0-1.47-.07-2.86,0-4.26a6.28,6.28,0,0,0-2.68-5.65c-2.15-1.72-4.25-3.65-6.09-5.36-1.36-1.25-1.6-2-.93-2.81a1.47,1.47,0,0,1,1.11-.67,4,4,0,0,1,1.94,1l.23.16a13.77,13.77,0,0,1,1.38,1.2,9.35,9.35,0,0,0,4,2.55.34.34,0,0,0,.14,0,.42.42,0,0,0,.26-.08.49.49,0,0,0,.23-.33c.62-3.57,1.33-7.6-2.94-10.46a27.55,27.55,0,0,1-3.47-2.94l-1.08-1-.6-.52c-.76-.64-1.55-1.3-1.59-2a1.73,1.73,0,0,1,.58-1.25,1.4,1.4,0,0,1,1-.55,3.65,3.65,0,0,1,1.89,1.1c.25.21.5.43.75.61a12.84,12.84,0,0,1,1.28,1.11,7.73,7.73,0,0,0,3.24,2.12l.13,0a.51.51,0,0,0,.43-.24,6.48,6.48,0,0,0,.76-4,11.21,11.21,0,0,1,0-1.42c0-.3,0-.63,0-1,0-1.78.2-2.62,1.43-2.68h.18c1.48,0,1.65.95,1.65,3,0,.25,0,.49,0,.73,0,.95,0,1.91,0,2.86s0,2.16,0,3.25c0,.35,0,.72,0,1.09-.09,1.3-.19,2.77,1.24,4a.46.46,0,0,0,.33.13.5.5,0,0,0,.32-.11c.39-.32.76-.64,1.12-.95a16.48,16.48,0,0,1,2.15-1.67,7.8,7.8,0,0,0,1.43-1.24c.68-.67,1.37-1.37,2-1.37a1.78,1.78,0,0,1,1.27.85,1.72,1.72,0,0,1,.48,1.28c-.09.71-1,1.34-1.79,1.95a9.64,9.64,0,0,0-1.44,1.2,20.64,20.64,0,0,1-3.73,3.27c-3.28,2.23-4.13,5.3-2.75,10a.52.52,0,0,0,.34.34l.14,0a.47.47,0,0,0,.32-.12c.62-.5,1.2-1,1.77-1.46,1.24-1,2.37-2,3.53-2.88A4.27,4.27,0,0,1,818.05,453.66Zm822-51.43c-9.34.13-16.37,4.79-20.9,13.87-4.39,8.77-5.84,18.93-4.46,31,.91,7.93,2.93,13.91,6.36,18.85,4.61,6.62,9.91,9.85,16.7,10.19h0a.5.5,0,0,0,.49-.4,34,34,0,0,0,.42-7.53c0-1.53-.06-3,0-4.44a6.14,6.14,0,0,0-2.56-5.68c-1.83-1.44-3.59-3-5.31-4.56l-.83-.75c-.67-.59-1.38-1.28-1.4-1.95a1.63,1.63,0,0,1,.57-1.16,1.36,1.36,0,0,1,1-.49,4,4,0,0,1,2,1,17.26,17.26,0,0,1,1.53,1.34,8,8,0,0,0,4,2.5h.1a.52.52,0,0,0,.29-.09.5.5,0,0,0,.2-.34c1-6.83.91-7-3.74-11.09l-.58-.51c-1.21-1.06-2.43-2.11-3.62-3.2l-.34-.31c-1.29-1.13-1.77-1.74-.91-2.76a1.62,1.62,0,0,1,1.2-.73,4,4,0,0,1,2,1.07l.45.35a14.57,14.57,0,0,1,1.14,1,6.85,6.85,0,0,0,4.41,2.36h0a.51.51,0,0,0,.34-.14.48.48,0,0,0,.16-.36v-2.15c0-1.6,0-3.13,0-4.65a1.67,1.67,0,0,1,1.63-1.89h0c.42,0,1.42,0,1.57,1.92,0,.65,0,1.34,0,2s0,1.37.06,2.06a21.82,21.82,0,0,1,0,2.68,11.87,11.87,0,0,0,.78,5.92.5.5,0,0,0,.45.28l.16,0a10.57,10.57,0,0,0,4-2.67,15.21,15.21,0,0,1,1.64-1.4,3.85,3.85,0,0,1,1.86-.92,1.36,1.36,0,0,1,1,.58c.78.89.6,1.62-.69,2.79l-.21.19c-2.14,2-4.36,4-6.65,5.85-3.31,2.67-2.65,5.81-1.57,8.54a.48.48,0,0,0,.46.32.39.39,0,0,0,.18,0,10.79,10.79,0,0,0,3.52-2.41,15.94,15.94,0,0,1,1.36-1.15l.56-.45a3.75,3.75,0,0,1,1.9-1,1.59,1.59,0,0,1,1.17.73c.86,1,.37,1.66-.94,2.84l-.29.27-.71.67a10.3,10.3,0,0,1-1.89,1.6c-5.67,3.32-7.46,8.31-5.61,15.7a.49.49,0,0,0,.48.38h0c7.92-.09,14.6-4.74,18.33-12.75,7.27-15.62,7.32-31.48.14-47.15-4.12-9-11.41-13.73-21.1-13.73ZM284.43,398.59c-3.23,0-6.5,2-9.71,5.89a51.07,51.07,0,0,0-8.46,15.78c-5.45,15.34-7.08,28.27-5.12,40.7,1.35,8.56,7.29,13.88,15.51,13.88a21.7,21.7,0,0,0,5.63-.79.5.5,0,0,0,.36-.48q0-1.33,0-2.7a59.13,59.13,0,0,1,.09-6.24c.3-3.69-.88-6.32-3.74-8.29a35.9,35.9,0,0,1-4.21-3.6l-.73-.69c-.63-.58-1.41-1.31-1.42-2a1.58,1.58,0,0,1,.56-1.1,1.3,1.3,0,0,1,.94-.45,4,4,0,0,1,1.92.92l.12.09a12.3,12.3,0,0,1,1.48,1.28,6.66,6.66,0,0,0,4,2.32h0a.5.5,0,0,0,.48-.35c1.44-4.82.14-8.5-4-11.24a23.32,23.32,0,0,1-3-2.5c-.4-.38-.8-.76-1.21-1.12a3.51,3.51,0,0,1-1.4-2,1.68,1.68,0,0,1,.54-1.18,1.26,1.26,0,0,1,.91-.5,3.36,3.36,0,0,1,1.62.8l.39.27a12.48,12.48,0,0,1,1.55,1.32,6.92,6.92,0,0,0,4,2.34h.06a.51.51,0,0,0,.47-.34,11.59,11.59,0,0,0,.45-4.23,18.18,18.18,0,0,1,0-2.1c.16-1.72.62-2.35,1.67-2.35s1.6.67,1.67,2.48c0,1.17,0,2.37,0,3.53s0,2.05,0,3.08a10.78,10.78,0,0,1-.06,1.37,5.52,5.52,0,0,0,.9,4.26.5.5,0,0,0,.39.18.44.44,0,0,0,.16,0,10.34,10.34,0,0,0,3.75-2.59c.45-.43.88-.84,1.34-1.21l.2-.15a3.94,3.94,0,0,1,2.05-1.12,1.53,1.53,0,0,1,1.08.55,1.51,1.51,0,0,1,.55,1.07c0,.67-.75,1.35-1.4,1.95l-1,.89a40.41,40.41,0,0,1-4.46,3.81c-3.41,2.39-4.31,5.56-2.92,10.27a.5.5,0,0,0,.33.33.39.39,0,0,0,.15,0,.54.54,0,0,0,.32-.11l1.65-1.41c1.1-.94,2.06-1.75,3-2.54l.59-.51c.66-.59,1.34-1.2,2-1.2a1.47,1.47,0,0,1,1.06.59,1.79,1.79,0,0,1,.62,1.26c0,.65-.77,1.26-1.48,1.84-.26.23-.52.45-.75.67-.89.86-1.84,1.68-2.77,2.48l-1,.89c-4.88,4.29-5.57,7.13-3.32,13.8a.51.51,0,0,0,.44.34c1,.06,2,.09,2.85.09,11.84,0,17-5.21,17.76-18a83,83,0,0,0-2-24.4c-2.31-9.6-5.38-19.64-12.11-28C290.88,400.56,287.65,398.59,284.43,398.59ZM1319,398.2c-3.18,0-6.4,1.93-9.58,5.74a26.8,26.8,0,0,0-2.76,3.75c-9.3,16.26-13.06,33.45-11.17,51.1,1.09,10.16,6.66,15.53,16.12,15.53a30.09,30.09,0,0,0,4.68-.4.52.52,0,0,0,.42-.42c1.84-11.84,1.37-13.22-7.2-21.05l-.46-.42c-.35-.31-.69-.62-1-.95-1.22-1.2-.84-2-.45-2.49a1.34,1.34,0,0,1,1.07-.61,2.43,2.43,0,0,1,1.4.59c1.29.95,2.56,2,3.9,3.07l1.9,1.53a.52.52,0,0,0,.32.11.45.45,0,0,0,.16,0,.49.49,0,0,0,.32-.36c1.1-4.74,1-8.46-3.2-11.24a32.82,32.82,0,0,1-4.49-3.86l-.8-.77a2.67,2.67,0,0,1-1-1.71,1.51,1.51,0,0,1,.55-1.08,1.31,1.31,0,0,1,.93-.43,3.61,3.61,0,0,1,1.68.71,13.67,13.67,0,0,1,1.82,1.49,10.75,10.75,0,0,0,4.54,2.83l.14,0a.54.54,0,0,0,.3-.1.52.52,0,0,0,.2-.4c0-.79,0-1.54,0-2.26,0-1.62,0-3.14,0-4.64,0-1.29.56-2,1.54-2h.11c.33,0,1.36,0,1.5,1.87.06.72.06,1.47.07,2.19s0,1.25,0,1.87c.05.83,0,1.67,0,2.55a16,16,0,0,0,.65,6.14.55.55,0,0,0,.27.29.45.45,0,0,0,.2,0,.41.41,0,0,0,.19,0,12.84,12.84,0,0,0,4.07-2.79,18.13,18.13,0,0,1,1.62-1.37,3.77,3.77,0,0,1,1.89-.92,1.38,1.38,0,0,1,1,.54,1.55,1.55,0,0,1,.49,1.08,2.73,2.73,0,0,1-1.12,1.71l-1.06,1a63.47,63.47,0,0,1-5.07,4.32c-3.09,2.27-3.9,5.24-2.62,9.63a.5.5,0,0,0,.28.32.65.65,0,0,0,.2,0,.59.59,0,0,0,.22-.05,17.12,17.12,0,0,0,4-3,18.79,18.79,0,0,1,2.34-1.94,2.36,2.36,0,0,1,1.28-.45,1.54,1.54,0,0,1,1.23.69,1.58,1.58,0,0,1-.32,2.11l-.6.6a22.4,22.4,0,0,1-3.86,3.39c-6.28,3.92-5.83,9.8-4.73,14.49a.5.5,0,0,0,.45.38c1.28.1,2.49.15,3.62.15h0c11.44,0,16.48-5,17.4-17.24a88.26,88.26,0,0,0-8-43.29,42.45,42.45,0,0,0-5.84-9.68C1325.45,400.13,1322.27,398.2,1319,398.2ZM621.17,305a.5.5,0,0,0-.5.5V470.09a.5.5,0,0,0,.5.5H745.35a.5.5,0,0,0,.5-.5V305.47a.5.5,0,0,0-.5-.5Zm286.3,135c1.09,0,2.49.87,5.28,2.59l2.15,1.32,16,9.65,7.1,4.29a.45.45,0,0,0,.25.07.52.52,0,0,0,.38-.17l.23-.26a8.32,8.32,0,0,0,2.59-5,.52.52,0,0,0-.24-.49L933.09,447q-11.79-7.16-23.59-14.35a3.47,3.47,0,0,0-1.83-.55,5.52,5.52,0,0,0-2.9,1.14l-.45.28q-13.2,8-26.36,16l-2.54,1.54a3.25,3.25,0,0,0-2,2.55.67.67,0,0,0,.06.28c.09.15.17.31.25.47a6.25,6.25,0,0,0,3.2,3.35.53.53,0,0,0,.2,0,.5.5,0,0,0,.26-.08c2.27-1.36,4.54-2.75,6.84-4.15,5.2-3.16,10.58-6.44,16-9.6,1.51-.9,2.68-1.66,3.62-2.27C905.58,440.61,906.54,440,907.47,440Zm790.69-79.77a.5.5,0,0,0-.5.5v86.62a.5.5,0,0,0,.5.5h57.41a.5.5,0,0,0,.5-.5V360.72a.5.5,0,0,0-.5-.5Zm-576.58-63.11a.5.5,0,0,0-.5.5V443.32a.5.5,0,0,0,.5.5h120.23a.5.5,0,0,0,.5-.5V297.61a.51.51,0,0,0-.5-.5Zm639.17,96.79a.5.5,0,0,0-.5.5v24.85a.5.5,0,0,0,.5.5h109.61a.5.5,0,0,0,.5-.5V394.4a.5.5,0,0,0-.5-.5Zm72.57-50.21,20.21,0c4.65,0,4.74.1,4.75,4.69q0,7.75,0,15.52,0,10.06,0,20.13c0,.39,0,.79-.06,1.2-.1,1.46-.22,3.11,1.07,4.63a.51.51,0,0,0,.34.17c1.74.14,3.62.27,5.55.27a34.33,34.33,0,0,0,5.3-.38.51.51,0,0,0,.42-.5v-66.8a.5.5,0,0,0-.5-.5H1760.84a.51.51,0,0,0-.5.5v66.73a.5.5,0,0,0,.5.5h42.85a.49.49,0,0,0,.46-.31,11.68,11.68,0,0,0,.69-5.31c0-.43,0-.85,0-1.27q0-8.81,0-17.61,0-8.26,0-16.52c0-5.12,0-5.12,5.29-5.13Q1821.73,343.69,1833.32,343.69Zm-8.63,46.52.71,0,.77,0a4.86,4.86,0,0,0,2.84-.76.48.48,0,0,0,.22-.41v-41a.5.5,0,0,0-.5-.5H1809a.51.51,0,0,0-.5.5v41.67a.5.5,0,0,0,.5.5h8.67c2.35,0,4.66,0,7,0Zm18.66-43.09c-3.55,0-6.48.09-9.22.29a.51.51,0,0,0-.47.5v41.48a.51.51,0,0,0,.5.5h20.08a.5.5,0,0,0,.5-.5V347.74a.51.51,0,0,0-.5-.5l-4.44-.05C1847.64,347.16,1845.49,347.12,1843.35,347.12Zm-1703-29.22a9.44,9.44,0,0,0-4.41,1.45L94.61,341.44q-25.86,13.8-51.72,27.63c-.35.19-.72.36-1.09.53a7.89,7.89,0,0,0-4.18,3.46.52.52,0,0,0,0,.51,33.65,33.65,0,0,1,2,3.67,23.51,23.51,0,0,0,4.26,6.56.54.54,0,0,0,.35.14.46.46,0,0,0,.23-.05l1.33-.66c.89-.43,1.7-.83,2.5-1.26L68.2,371.3c21.89-11.76,44.53-23.91,66.7-36a11,11,0,0,1,5.34-1.6,11.24,11.24,0,0,1,5.39,1.62c25.49,13.9,51.49,27.87,76.64,41.37l8.6,4.62c.38.2.76.43,1.14.67a9.52,9.52,0,0,0,4.87,1.77h0a.5.5,0,0,0,.45-.28l5.15-10.87a.48.48,0,0,0-.17-.62l-1-.69a9.93,9.93,0,0,0-1.25-.83l-23.94-12.77c-23.85-12.72-48.5-25.87-72.7-38.89A6.47,6.47,0,0,0,140.36,317.9Zm738.08,34.51a4.28,4.28,0,0,0-3.35,1.16c-.66.69-1.35,1.37-2,2.05a39,39,0,0,0-6,7,.47.47,0,0,0,0,.5.48.48,0,0,0,.43.26h190.66a.48.48,0,0,0,.43-.25.5.5,0,0,0,0-.5,23.55,23.55,0,0,0-3.76-4.55,27.48,27.48,0,0,1-2.21-2.42c-1.79-2.31-4-3.29-7.43-3.29q-47.49,0-95,0H878.44Zm820.16-4a.49.49,0,0,0-.44.27,7.8,7.8,0,0,0-.28,7,.51.51,0,0,0,.46.32h57.05a.49.49,0,0,0,.48-.37c.75-2.8.73-4.71-.09-6.62a.5.5,0,0,0-.39-.3l-.8-.13a9.71,9.71,0,0,0-1.46-.16H1698.6ZM893.67,337.68c-2.08,0-3.92.13-5.42,1.83s-3.12,3.39-5,5.33l-2.76,2.92a.51.51,0,0,0-.09.54.49.49,0,0,0,.46.3h162.92a.5.5,0,0,0,.47-.68,9.41,9.41,0,0,0-2.26-3.18,9.36,9.36,0,0,1-1.16-1.33c-3.49-5.15-8.44-5.86-13.28-5.86h-.27c-21.51.12-42.63.14-58.64.14h-75Zm867.2-27.07a.51.51,0,0,0-.49.38,12.94,12.94,0,0,0-.05,6.51.5.5,0,0,0,.49.37h109.5a.5.5,0,0,0,.48-.34,10.5,10.5,0,0,0,0-6.55.49.49,0,0,0-.48-.37ZM359.18,288.8a.5.5,0,0,0-.5.46,93.46,93.46,0,0,0,0,19.62.5.5,0,0,0,.5.45H450.7a.51.51,0,0,0,.5-.5V289.3a.5.5,0,0,0-.5-.5ZM613,293.06a.49.49,0,0,0-.5.45c0,.34-.07.67-.11,1-.23,2.17-.46,4.23.6,6.42a.5.5,0,0,0,.45.28h140.1a.49.49,0,0,0,.5-.47c0-.51.07-1,.11-1.43.07-.93.14-1.73.12-2.55,0-.24,0-.49,0-.74a3,3,0,0,0-.85-2.85.51.51,0,0,0-.31-.11ZM130.94,89a22.52,22.52,0,0,1-4-.37c-7.25-1.34-12.34-5.79-15.13-13.23a.48.48,0,0,0-.26-.28,6.36,6.36,0,0,0-2.76-.56c-.38,0-.75,0-1.11,0s-.66,0-1,0h-.22C97.1,74.37,89.3,68.9,86.15,60.4s-.65-17.7,6.62-23.75c2.06-1.71,3.12-3.23,2.8-6.33a17.39,17.39,0,0,1,4.09-13.66,16.14,16.14,0,0,1,12.19-5.22,20.49,20.49,0,0,1,5.2.69l2,.56,1.22.35a.32.32,0,0,0,.14,0,.5.5,0,0,0,.43-.25C125.54,4.55,132.44,0,140.3,0c5.59,0,11.34,2.43,16.19,6.84a.48.48,0,0,0,.34.13.45.45,0,0,0,.2,0,27,27,0,0,1,11.16-2.64,22,22,0,0,1,11.15,3.1c6.83,4,10.43,10.31,11,19.36a.52.52,0,0,0,.43.47c9.2,1.31,15.52,5.14,19.31,11.71a21.16,21.16,0,0,1,2.67,14.38c-2.06,12.23-11.32,18.43-27.51,18.43h-.81a.5.5,0,0,0-.47.33c-3,8-8.23,13-15.65,14.91a22.87,22.87,0,0,1-5.83.78c-5.27,0-10.35-2-15.53-6a.51.51,0,0,0-.31-.11.52.52,0,0,0-.36.16C141.8,86.61,136.63,89,130.94,89ZM112.67,69.8c1.65,0,2.82.56,3.21,3.3a12.18,12.18,0,0,0,3.32,6.52,15.22,15.22,0,0,0,11.29,5.2,16.8,16.8,0,0,0,12.9-6.6c1.47-1.82,2.23-2.63,2.89-2.63s1.33.63,2.61,1.85a20.52,20.52,0,0,0,14.05,6.15c8,0,14.53-5.42,17.1-14.16.73-2.44,1.58-2.94,2.65-2.94a5.71,5.71,0,0,1,1.79.35,18.49,18.49,0,0,0,5.75.92,19.88,19.88,0,0,0,5.6-.82,18,18,0,0,0,12.9-19.24c-1.12-8.92-8.53-15.46-18-15.89-2.51-.12-3.9-.18-4.43-.71s-.49-1.8-.43-4.12a18.16,18.16,0,0,0-5-13.23A17.33,17.33,0,0,0,168.3,8.51a19,19,0,0,0-8.81,2.21l-.26.13a7.88,7.88,0,0,1-3.31,1.2c-.6,0-1.54-.18-2.76-1.73a15.65,15.65,0,0,0-12.51-6.16c-7.73,0-14.49,5.21-16.06,12.39-.51,2.33-1.07,2.81-1.76,2.81a7,7,0,0,1-2.93-1.17c-.2-.12-.39-.25-.58-.38s-.46-.32-.71-.46a13.78,13.78,0,0,0-6.71-1.81,12.42,12.42,0,0,0-7.72,2.71,11.49,11.49,0,0,0-3.82,13.82c1.34,3.27.53,4.45-2.42,6.14-6.45,3.69-9.48,9.42-8.76,16.57.92,9.18,8.18,15.58,17.65,15.58a22.41,22.41,0,0,0,3.89-.35A11,11,0,0,1,112.67,69.8ZM1710.74,264.26a21.42,21.42,0,0,1-3.94-.37c-7.34-1.34-12.44-5.79-15.15-13.23a.47.47,0,0,0-.27-.28,7,7,0,0,0-2.91-.57c-.41,0-.81,0-1.21.05s-.72,0-1.08,0h-.36a22,22,0,0,1-20.07-14.67c-3-8.54-.43-17.26,6.72-23.33l.3-.25c1.62-1.37,3.16-2.67,2.59-5.58a15.74,15.74,0,0,1,3.31-13.26,17.27,17.27,0,0,1,13.2-6.2,17.49,17.49,0,0,1,5.83,1c.42.14.84.27,1.41.43.3.08.65.18,1.06.31l.14,0a.5.5,0,0,0,.45-.27c3.89-7.4,9.13-11.51,16-12.59a24,24,0,0,1,3.64-.29c5.78,0,11,2.35,15.51,7a.51.51,0,0,0,.36.15.44.44,0,0,0,.22-.05,25.54,25.54,0,0,1,11.19-2.64c9.42,0,21,5.86,22.64,22.38a.5.5,0,0,0,.42.45c9,1.27,15.26,5.08,19.06,11.64a21.09,21.09,0,0,1,2.71,14.37c-2,12.15-10.46,17.73-28.21,18.65a.5.5,0,0,0-.44.31c-4.16,9.83-11.89,15.48-21.19,15.48a26.59,26.59,0,0,1-16.09-5.81.5.5,0,0,0-.3-.11.52.52,0,0,0-.37.16C1721.55,261.87,1716.44,264.26,1710.74,264.26Zm-18.33-19.21c1.6,0,2.7.54,3.25,3.23,1.25,6.07,5.31,10,11.74,11.41a16.48,16.48,0,0,0,3.51.39c4.57,0,8.58-2.07,11.89-6.15,1.61-2,2.49-3.06,3.2-3.06s1.65.94,3.28,2.5a18.84,18.84,0,0,0,13,5.42c8,0,14.75-5.11,17.26-13,1.08-3.41,1.32-3.9,2.47-3.9a17.55,17.55,0,0,1,3,.5l.11,0a25.52,25.52,0,0,0,5.15.57,17.69,17.69,0,0,0,14.17-6.78c4.56-5.5,5.45-11.79,2.55-18.17-3.18-7-8.91-10.72-17-11-2.23-.07-3.57-.11-4-.63s-.45-1.78-.39-4.1a18.35,18.35,0,0,0-5.11-13.39,17.12,17.12,0,0,0-12.34-5.22,18.09,18.09,0,0,0-8.34,2.07,8.47,8.47,0,0,1-3.74,1.2c-1.37,0-2.58-.71-4.19-2.45a15.71,15.71,0,0,0-11.65-5.16,16.17,16.17,0,0,0-15.32,10.85c-1.14,3.17-1.58,4.27-2.41,4.27s-2.07-.73-4-1.84a13.69,13.69,0,0,0-6.7-1.9,13,13,0,0,0-7.71,2.72,11.4,11.4,0,0,0-4,13.79c1.26,3.13.76,4.45-2.3,6.17-6.48,3.63-9.54,9.35-8.85,16.53.88,9.23,8.14,15.68,17.66,15.68a21.6,21.6,0,0,0,3.81-.35A11.14,11.14,0,0,1,1692.41,245.05Zm120.52,252.72h-35.34c-5.16,0-5.16,0-5.16-4.76,0-17.15,0-34.78,0-52.41,0-4.4.09-4.49,4.38-4.49q21.62,0,43.22,0h35a5.83,5.83,0,0,1,3,.54c.87,1.17.82,2.55.78,4,0,.32,0,.65,0,1,0,20,0,36.2,0,50.89,0,5.26,0,5.26-5.16,5.27Zm-8.63-58.06a.5.5,0,0,0-.5.5V493.7a.5.5,0,0,0,.5.5h22.57a.5.5,0,0,0,.5-.5V440.21a.5.5,0,0,0-.5-.5Zm27.8.1a.5.5,0,0,0-.5.5v53.24a.51.51,0,0,0,.5.5h22.5a.51.51,0,0,0,.5-.5V440.31a.5.5,0,0,0-.5-.5Zm-55.52-.24a.5.5,0,0,0-.5.5v53.46a.5.5,0,0,0,.5.5H1799a.5.5,0,0,0,.5-.5V440.07a.5.5,0,0,0-.5-.5ZM410,512.52l-33,0c-4.63,0-4.72-.1-4.74-4.69,0-7.95,0-15.91,0-23.87v-15.1a.47.47,0,0,0-.18-.39,6.1,6.1,0,0,0-4-1.31c-.43,0-.85,0-1.26.05s-.78,0-1.16,0l-.49,0c-2.19-.13-3-.91-3-2.87,0-3.87,0-7.75,0-11.44v-4.07a5.2,5.2,0,0,1,3.73-1.27l.82,0h.81l42.52,0,32.5,0c5.21,0,5.21,0,5.25,5.25v.72c0,3.1.05,6.3,0,9.45-.09,3.92-.21,4-4.27,4.2H443l-.77,0h-.81a6.37,6.37,0,0,0-2.83.54.49.49,0,0,0-.18.14,5.76,5.76,0,0,0-.84,4.31c0,.44.06.87.06,1.29q0,9.74,0,19.47,0,7.32,0,14.64c0,4.89-.06,4.93-5,4.94Zm-33.78-44.89a.5.5,0,0,0-.5.5v40.43a.5.5,0,0,0,.48.5c4,.09,8.81.19,13.75.19h0c4.48,0,8.56-.08,12.47-.25a.5.5,0,0,0,.48-.49V468.13a.5.5,0,0,0-.5-.5Zm31.2,0a.5.5,0,0,0-.5.5v40.18a.5.5,0,0,0,.5.5h26.17a.5.5,0,0,0,.5-.5V468.14a.5.5,0,0,0-.5-.5ZM366,451.37a.51.51,0,0,0-.5.51c0,1.29,0,2.54,0,3.75a37.88,37.88,0,0,0,.3,7.38.5.5,0,0,0,.49.42h77.46a.49.49,0,0,0,.49-.46l0-.49c.29-3.66.57-7.12-.16-10.71a.49.49,0,0,0-.49-.4ZM214,453.8q-19.44,0-38.88,0-18.82,0-37.65,0c-3.83,0-4-.17-4-4.38-.05-6.75-.06-13.91,0-21.88,0-4.49,0-4.49,4.81-4.65.9,0,1.79-.08,2.84-.15l1.71-.1a.49.49,0,0,0,.47-.42,46.06,46.06,0,0,0,.37-8.2c0-1.69-.06-3.3,0-4.92a72.68,72.68,0,0,0,0-7.53c-.16-4.2-.33-8.54.8-12.73A37,37,0,0,1,153,388c1.72,0,3.47.07,5.16.13s3.45.13,5.19.13h1c5-.08,10.33-.12,16.84-.12l12.57,0,8.85,0c5,0,5,0,5,4.91,0,6.7,0,13.4,0,20v8.13a.49.49,0,0,0,.19.39,6.29,6.29,0,0,0,4.08,1.34c.44,0,.87,0,1.3-.06s.78,0,1.16,0h.13c2.57,0,3.56,1,3.54,3.46-.07,7.93-.09,16,0,23.93a3.7,3.7,0,0,1-.81,2.73,4.17,4.17,0,0,1-3.08.88Zm-76.31-27.23a.5.5,0,0,0-.5.5v22.6a.51.51,0,0,0,.5.5h75.94a.51.51,0,0,0,.5-.5v-22.6a.5.5,0,0,0-.5-.5Zm40.5-34.67a.5.5,0,0,0-.5.5v29.54a.5.5,0,0,0,.5.5h25a.5.5,0,0,0,.5-.5V392.4a.51.51,0,0,0-.5-.5Zm-30.33-.13a.5.5,0,0,0-.5.5V421.8a.5.5,0,0,0,.5.5h25.28a.5.5,0,0,0,.5-.5V392.27a.5.5,0,0,0-.5-.5Zm-19,120.76-2.28,0H74c-5,0-5-.09-5.11-4.88,0-.84,0-1.67,0-2.51v-1c0-5.61,0-5.61,5.29-6.88a.45.45,0,0,0,.32-.25,7.46,7.46,0,0,0,.59-4.29c0-.46,0-.91,0-1.36q0-8.9,0-17.79,0-8.65,0-17.31c0-4.64,0-4.64,4.76-4.65l22.84,0,21.53,0c4.76,0,4.85.11,4.87,5.15q0,12.1,0,24.23v15.71a.49.49,0,0,0,.39.49c5.73,1.31,5.73,1.31,5.76,6.86v1.07c0,4,0,6-.77,6.78-.59.6-1.82.71-4,.71ZM73.1,501.62a.49.49,0,0,0-.48.39c-.54,2.5-.68,4.49.31,6.66a.51.51,0,0,0,.46.29h57.22a.51.51,0,0,0,.48-.34,9.18,9.18,0,0,0,.08-6.68.51.51,0,0,0-.47-.32Zm31.48-46.41a.5.5,0,0,0-.5.5v41.37a.5.5,0,0,0,.48.5c3.65.11,7.06.21,10.53.21s6.74-.11,9.72-.34a.5.5,0,0,0,.46-.5V455.71a.5.5,0,0,0-.5-.5Zm-25.39-.07a.5.5,0,0,0-.5.5v41.11a.5.5,0,0,0,.5.5H99.48a.5.5,0,0,0,.5-.5V455.64a.5.5,0,0,0-.5-.5ZM512.81,144.28c-4.76,0-9.43-2.29-13.5-6.61a5.37,5.37,0,0,0-4.2-1.93l-.62,0c-.65.05-1.29.08-1.9.08a19.22,19.22,0,0,1-6.45-1c-7.44-2.57-12.32-8.94-12.44-16.22a17.1,17.1,0,0,1,12.07-16.41c2.94-1,5.07-2.2,6.61-5.3a13.6,13.6,0,0,1,12.15-7.44,13.37,13.37,0,0,1,3.72.52,12.25,12.25,0,0,0,3.38.53c2.6,0,4.68-1.07,7-2.67a17.32,17.32,0,0,1,9.83-3,17.62,17.62,0,0,1,16.81,11.6,17.47,17.47,0,0,1,.62,6.3c0,.86,0,1.74,0,2.62a.53.53,0,0,0,.22.4l.87.6c.6.4,1.16.79,1.72,1.18,6.13,4.34,8.73,10.08,7.72,17-1,6.76-5.11,11.56-12.28,14.27a19.26,19.26,0,0,1-6.84,1.26,20.82,20.82,0,0,1-6.83-1.19,7.12,7.12,0,0,0-2.4-.48,5.68,5.68,0,0,0-3.59,1.43C520.68,142.78,516.75,144.28,512.81,144.28Zm-14.38-13.39a3.17,3.17,0,0,1,2.71,1.75c3.33,4.91,7.36,7.51,11.65,7.51,3.73,0,7.53-2,11-5.81,1-1.16,1.87-1.65,2.74-1.65a3.66,3.66,0,0,1,1.88.64,16.18,16.18,0,0,0,8.49,2.45h.34c7.08,0,13.35-4.47,14.91-10.64,1.63-6.44-1.57-12.5-8.15-15.42-3.12-1.39-3.76-2.69-2.73-5.56,1.41-4,.38-7.84-3-11.21a13.92,13.92,0,0,0-9.84-4A13.2,13.2,0,0,0,518,93.84c-1.6,2-2.64,2.76-3.83,2.76a6.42,6.42,0,0,1-3.29-1.3,10.9,10.9,0,0,0-6-1.73c-4.4,0-8.11,2.48-9,6-1.11,4.29-3.23,5.4-7.56,6.27A13,13,0,0,0,478,117.3a13.25,13.25,0,0,0,7.72,12.81,16.36,16.36,0,0,0,7,1.61,16,16,0,0,0,4.3-.6A5.67,5.67,0,0,1,498.43,130.89Zm945.42,78.17a31.65,31.65,0,1,1,.4-63.29h.26a31.2,31.2,0,0,1,22.15,9.4,31.7,31.7,0,0,1-22.53,53.89ZM1444,150c-14.94,0-27.55,12.47-27.56,27.24a27.63,27.63,0,0,0,8.1,19.59,27.34,27.34,0,0,0,19.48,8.13h.17a27.54,27.54,0,0,0,27.34-27.52,27.26,27.26,0,0,0-27.4-27.44Zm-58.64,362.61a4.16,4.16,0,0,1-3.06-.88,4.26,4.26,0,0,1-.86-3.12c.11-12,.11-23.85,0-35.11a4.19,4.19,0,0,1,.84-3.1,3.9,3.9,0,0,1,2.9-.84h.27c2.37.05,4.94.08,8.07.08h0l5.61,0,5.62,0,5.71,0,5.73,0c3.12,0,5.67,0,8-.08h.27a4,4,0,0,1,2.92.84,4.22,4.22,0,0,1,.84,3.09c-.12,11.19-.12,23,0,35.12a3.28,3.28,0,0,1-3.94,4c-6.36,0-12.69-.07-18.91-.07-6.65,0-13.36,0-19.94.08Zm23.57-3.39c1.26,0,2.5,0,3.73,0s2.42,0,3.63,0h0a67.77,67.77,0,0,0,7.94-.4.5.5,0,0,0,.44-.5v-35a.49.49,0,0,0-.15-.36.5.5,0,0,0-.35-.14h-1c-1.46,0-2.89,0-4.29-.05s-2.72-.05-4.05-.05a56,56,0,0,0-7.39.41.51.51,0,0,0-.44.5v35a.55.55,0,0,0,.15.36.52.52,0,0,0,.35.14ZM1385.77,473a.5.5,0,0,0-.5.5v34.8a.5.5,0,0,0,.5.5h16.48a.5.5,0,0,0,.5-.5v-34.8a.5.5,0,0,0-.5-.5Zm149.13,39.53a4.07,4.07,0,0,1-3-.86,4.26,4.26,0,0,1-.86-3.14c.11-12.51.1-24,0-35.09a4.3,4.3,0,0,1,.84-3.14,3.86,3.86,0,0,1,2.84-.83h.28c2.37.06,4.92.08,8,.08l5.72,0,5.63,0,5.68,0h5.63c3.13,0,5.7,0,8.06-.06h.24a4,4,0,0,1,2.94.85,4.12,4.12,0,0,1,.84,3.07c-.13,12.51-.07,24.76,0,35.09a4.25,4.25,0,0,1-.87,3.14,4.15,4.15,0,0,1-3.06.89c-6.48,0-12.85-.07-19-.07-6.67,0-13.32,0-19.78.08Zm29.5-39.8a51.11,51.11,0,0,0-7.72.49.5.5,0,0,0-.43.49V508.6a.5.5,0,0,0,.5.5l4,.08c1.76,0,3.5.09,5.24.09a62.63,62.63,0,0,0,7.46-.38.51.51,0,0,0,.44-.5v-35a.5.5,0,0,0-.5-.5c-1.55,0-3.07,0-4.57-.07S1565.88,472.76,1564.4,472.76ZM1536,509.15c1.51,0,3,0,4.45.05s2.84,0,4.25,0a72,72,0,0,0,7.39-.32.51.51,0,0,0,.45-.5v-35a.5.5,0,0,0-.49-.5l-2.54-.07c-2.27-.06-4.41-.12-6.54-.12a69.79,69.79,0,0,0-7.68.37.5.5,0,0,0-.44.5v35a.48.48,0,0,0,.5.5Zm-289.43,3.05c1,0,1.53-.66,1.69-2.28.08-.82.08-1.67.08-2.49v-4.95c0-5.14,0-10.28,0-15.42,0-4.6-.21-4.78-4.69-4.83q-4.15,0-8.31,0l-10.88,0H1122.61c-5.22,0-5.27.05-5.29,5.21v2.83c0,5.58,0,11.35.1,17a12.2,12.2,0,0,1-.08,1.43c-.1,1.08-.22,2.3.31,2.88a1.8,1.8,0,0,0,1.41.43h0a1.75,1.75,0,0,0,1.35-.47c.56-.61.45-1.88.36-3a13.38,13.38,0,0,1-.07-1.37c.08-4.88.07-9.69.06-14.79,0-1.95,0-3.92,0-5.92a.5.5,0,0,1,.5-.5h123a.5.5,0,0,1,.5.5v5.39c0,4.66,0,9.19,0,13.72,0,1.44,0,3,.1,4.55.07,1.33.57,2,1.5,2.08ZM945.23,421.66a3.78,3.78,0,0,1-2.76-.82,3.92,3.92,0,0,1-.81-2.89c.08-8.9.07-18,0-26.95a3.68,3.68,0,0,1,.79-2.73,4.12,4.12,0,0,1,3-.86c5.49,0,10.92,0,16.35,0q8.67,0,17.34-.06h0a4,4,0,0,1,3,.86,3.86,3.86,0,0,1,.83,2.85c-.09,8.83-.1,17.89,0,26.95a3.74,3.74,0,0,1-.82,2.76,4,4,0,0,1-2.9.85h-.17c-2.33,0-4.66-.05-7-.05H952.32c-2.31,0-4.61,0-6.92.05Zm7.33-30.93a46.2,46.2,0,0,0-6.67.45.49.49,0,0,0-.43.49v25.76a.49.49,0,0,0,.45.5c2.61.24,4.79.35,6.88.35h0a48.79,48.79,0,0,0,6.84-.46.51.51,0,0,0,.43-.5V391.59a.5.5,0,0,0-.45-.5C956.91,390.84,954.67,390.73,952.56,390.73Zm19,0a50.73,50.73,0,0,0-6.8.43.51.51,0,0,0-.43.5v25.77a.5.5,0,0,0,.46.5c2.69.23,4.94.33,7.08.33a60.13,60.13,0,0,0,7.13-.42.5.5,0,0,0,.45-.5c0-2.4,0-4.8.07-7.18a185.55,185.55,0,0,0-.36-18.67.49.49,0,0,0-.46-.45C975.73,390.83,973.6,390.74,971.57,390.74Zm57.76,30.94c-3.53,0-7.32-.06-12.26-.06h-12.23c-2.88,0-5.76,0-8.64,0-4,0-4.14-.23-4.18-4.24-.07-8-.07-16.29,0-25.41,0-4.38.12-4.47,4.41-4.52l6.36,0h9.94l4.79,0h5.19c2.28,0,4.57,0,6.85-.06h.19a3.56,3.56,0,0,1,2.65.8,4,4,0,0,1,.81,3c-.11,9-.1,17.89,0,26.45a4.38,4.38,0,0,1-.85,3.22,3.92,3.92,0,0,1-2.91.85Zm-7.79-30.93c-2.29,0-4.34.08-6.25.25a.5.5,0,0,0-.46.5v26.11a.51.51,0,0,0,.5.5c1.29,0,2.56,0,3.8.09s2.5.08,3.74.08h0a30.34,30.34,0,0,0,6.3-.56.49.49,0,0,0,.4-.49V391.45a.5.5,0,0,0-.48-.5C1026.51,390.84,1024,390.75,1021.54,390.75Zm-18.57,0a45.85,45.85,0,0,0-6.78.48.49.49,0,0,0-.42.49v25.84a.49.49,0,0,0,.47.49c2.67.16,4.91.26,7.14.26h0a55.71,55.71,0,0,0,6.68-.38.5.5,0,0,0,.44-.5v-25.8a.5.5,0,0,0-.45-.5C1007.35,390.83,1005.1,390.71,1003,390.71ZM892.65,513.33a3.89,3.89,0,0,1-2.84-.83,4,4,0,0,1-.8-2.93c.09-5.32.07-10.73,0-16,0-2.14,0-4.28,0-6.43,0,0,0-.08,0-.11q0-3.18,0-6.34c0-5.23,0-10.63,0-15.94a4.36,4.36,0,0,1,.84-3.21,4,4,0,0,1,2.94-.86h.14c4.87.06,9.84.09,15.2.09q7.2,0,14.39-.07h0a3.88,3.88,0,0,1,2.85.82,4,4,0,0,1,.83,3c-.06,14.38-.06,29.19,0,45.29a3.77,3.77,0,0,1-.79,2.75,3.55,3.55,0,0,1-2.58.78l-15.4,0q-7.36,0-14.73,0Zm.51-48.9a.5.5,0,0,0-.5.5V509.1a.5.5,0,0,0,.5.5H922a.5.5,0,0,0,.5-.5V464.93a.5.5,0,0,0-.5-.5Zm-704.1,48.13c-2.79,0-5.85-.07-9.62-.07l-5.91,0h-5.91l-5.11,0c-3.87,0-4.24-.38-4.29-4.23-.07-5-.05-10.13,0-15.07,0-2.05,0-4.11,0-6.16a.4.4,0,0,0,0-.15q0-3.18,0-6.34c0-4.94,0-10,0-15.05.06-3.95.3-4.19,4.27-4.22,1.95,0,3.9,0,5.85,0h11.68q4.51,0,9-.06h.17a4,4,0,0,1,2.94.86,4.27,4.27,0,0,1,.87,3.16c-.07,13.78-.08,27.94,0,43.3a4.33,4.33,0,0,1-.88,3.17,4,4,0,0,1-2.92.86ZM162.4,465a.5.5,0,0,0-.5.5v42.72a.5.5,0,0,0,.5.5h26.34a.5.5,0,0,0,.5-.5V465.53a.5.5,0,0,0-.5-.5Zm-36.68-55L105.6,410q-13.12,0-26.25-.11a2.27,2.27,0,0,1-.77-.29l-.5-.25a164.1,164.1,0,0,1-.25-21.27l.07-2c0-1.7,1.07-2,3.32-2h31l4,0,4,0c1.85,0,3.37,0,4.81-.06h.27a3.47,3.47,0,0,1,2.57.78,4,4,0,0,1,.79,3c-.12,6.24-.07,12.58,0,18.72v.11a3.88,3.88,0,0,1-.73,2.8,2.86,2.86,0,0,1-2.1.65ZM82,387.68a.5.5,0,0,0-.5.5v17.7a.51.51,0,0,0,.5.5h42.73a.51.51,0,0,0,.5-.5c0-1.6,0-3.17,0-4.73a101.18,101.18,0,0,0-.35-13,.5.5,0,0,0-.5-.44ZM552.69,512.56c-3.39-.06-6.86-.1-10.59-.1-3.25,0-6.61,0-10.29.08h-.14a3.85,3.85,0,0,1-2.83-.84,3.8,3.8,0,0,1-.83-2.83c.06-13.45,0-26.54,0-37.58a3.67,3.67,0,0,1,.78-2.67,3.54,3.54,0,0,1,2.57-.78h.11q5.52.07,11,.08c3.77,0,7.16,0,10.35-.11h.22a3.73,3.73,0,0,1,2.73.82c.61.62.87,1.65.84,3.34-.08,4.31-.06,8.7,0,12.94,0,1.71,0,3.43,0,5.15a.35.35,0,0,0,0,.2c0,1.78,0,3.57,0,5.36,0,4.24,0,8.62.06,12.92a4.24,4.24,0,0,1-.83,3.16,3.9,3.9,0,0,1-2.89.87Zm-20.31-41.42a.5.5,0,0,0-.5.5v36.7a.5.5,0,0,0,.5.5h20a.5.5,0,0,0,.5-.5v-36a.5.5,0,0,0-.26-.44,6.35,6.35,0,0,0-3.21-.75l-.91,0-.84,0-6.64,0Zm947.31-71.54a22.22,22.22,0,0,1-22.22-22.07,22.54,22.54,0,0,1,6.6-16.07,21.74,21.74,0,0,1,15.48-6.48h.25a22.31,22.31,0,1,1-.1,44.62Zm0-41.15a18.81,18.81,0,0,0-18.82,18.89,19,19,0,0,0,37.9,0,18.56,18.56,0,0,0-5.51-13.33,19.12,19.12,0,0,0-13.47-5.56Zm61,89.15a3.71,3.71,0,0,1-2.7-.79,3.24,3.24,0,0,1-.73-2.41c0-4.41,0-8.83,0-13.24v-4.57c0-2,.92-2.86,3-2.86H1553l13.82,0a2.69,2.69,0,0,1,2,.63,2.77,2.77,0,0,1,.63,2c0,6,0,12.21,0,18.32a2.88,2.88,0,0,1-.65,2.16,3,3,0,0,1-2.22.68l-5.5,0h-7.81l-.13,0-3.52,0h-3.65c-1.65,0-3.3,0-5,0Zm.77-20.2a.49.49,0,0,0-.49.45,71.46,71.46,0,0,0,0,15.61.51.51,0,0,0,.5.44h24.08a.51.51,0,0,0,.5-.49c0-1.19,0-2.36.07-3.52a70.42,70.42,0,0,0-.37-12.07.49.49,0,0,0-.49-.42Zm-24.06,20.16-22.11,0h-4.38c-1.79,0-2.58-.81-2.58-2.65v-6.05c0-4.08,0-8.16,0-12.25a2.94,2.94,0,0,1,.65-2.17,3.08,3.08,0,0,1,2.25-.68h20.75l5.25,0h0a3.34,3.34,0,0,1,2.45.72,3.38,3.38,0,0,1,.72,2.46c0,4.6,0,9.29,0,13.82v4a2.9,2.9,0,0,1-.72,2.19,3.18,3.18,0,0,1-2.24.68Zm-25-20.28a.5.5,0,0,0-.5.46,74.83,74.83,0,0,0,.11,15.67.49.49,0,0,0,.49.43h23.7a.5.5,0,0,0,.5-.5V427.78a.5.5,0,0,0-.5-.5Zm24.27,66c-1.52-.05-3.17-.07-5.17-.07h-3.64l-3.63,0h-7.07l-4.45,0c-4.27-.06-4.27-.06-4.33-4,0-2.61,0-5.27,0-7.84,0-2.76,0-5.62,0-8.42a3.8,3.8,0,0,1,.74-2.85,3.26,3.26,0,0,1,2.43-.74c4.89.05,9.71.07,14.53.07,3.68,0,7.35,0,11,0h0a2.84,2.84,0,0,1,3.41,3.44c-.1,6.14-.11,11.64,0,16.79a3.79,3.79,0,0,1-.78,2.81,3.61,3.61,0,0,1-2.69.81Zm-24.51-20.2a.53.53,0,0,0-.36.15.54.54,0,0,0-.14.36c0,1.71,0,3.4,0,5a54.26,54.26,0,0,0,.46,10.63.49.49,0,0,0,.49.41h24a.5.5,0,0,0,.35-.14.49.49,0,0,0,.15-.36c0-1.61,0-3.18.06-4.72a80.89,80.89,0,0,0-.28-10.93.5.5,0,0,0-.5-.44Zm-49.64,20.19a3.42,3.42,0,0,1-2.52-.76,3.52,3.52,0,0,1-.74-2.62c.08-5.49.08-11.15,0-17.29a3.31,3.31,0,0,1,.7-2.46,3.27,3.27,0,0,1,2.4-.72c7.13,0,14.22,0,21.3,0h4.72a3.21,3.21,0,0,1,2.35.71,2.81,2.81,0,0,1,.66,2.1c0,6.8,0,12.46,0,17.79a3.24,3.24,0,0,1-.73,2.41,3.75,3.75,0,0,1-2.72.79h-.25c-1.72,0-3.44-.05-5.15-.05H1447.6c-1.65,0-3.3,0-4.95.05Zm.82-20.1a.5.5,0,0,0-.5.45,111.15,111.15,0,0,0-.22,13.39l0,2.17a.5.5,0,0,0,.5.49h24.38a.51.51,0,0,0,.5-.51c0-1.71,0-3.41,0-5.05a57,57,0,0,0-.4-10.52.5.5,0,0,0-.49-.42Zm24.63-25.61c-1.76,0-3.51,0-5.26,0H1447.5c-1.7,0-3.39,0-5.09,0h-.12a2.64,2.64,0,0,1-3.11-3.12c0-5.17,0-10.82,0-17.78a3,3,0,0,1,.69-2.24,2.91,2.91,0,0,1,2.18-.69l26.47,0c1.92,0,2.78,1,2.78,3.07v4.43c0,4.21,0,8.56,0,12.84a3.62,3.62,0,0,1-.78,2.68,3.48,3.48,0,0,1-2.58.8Zm-24.65-20.15a.49.49,0,0,0-.49.46,84.6,84.6,0,0,0,0,15.51.49.49,0,0,0,.49.45h23.79a.5.5,0,0,0,.5-.5V427.94a.5.5,0,0,0-.5-.5Zm-49.84,20.15a3.46,3.46,0,0,1-2.56-.79,3.49,3.49,0,0,1-.78-2.6c0-6.14.06-11.79,0-17.28a3.28,3.28,0,0,1,.74-2.44,3.32,3.32,0,0,1,2.44-.76c6.2,0,12.36,0,18.53,0h7.46a3,3,0,0,1,2.26.71,3.59,3.59,0,0,1,.76,2.65c0,5.33,0,11,0,17.27a2.72,2.72,0,0,1-3.16,3.2c-1.87,0-3.69,0-5.52,0h-7.77l-3.62,0h-3.71c-1.64,0-3.27,0-4.9,0Zm.63-20.08a.55.55,0,0,0-.36.15.54.54,0,0,0-.14.36c0,1.7,0,3.36-.06,5a53.49,53.49,0,0,0,.43,10.54.5.5,0,0,0,.49.42h23.79a.5.5,0,0,0,.5-.46,78.72,78.72,0,0,0-.09-15.55.51.51,0,0,0-.5-.44ZM1018.36,484a3.25,3.25,0,0,1-2.41-.75,3.89,3.89,0,0,1-.78-2.88c.07-6,.12-12.46,0-18.8a3.2,3.2,0,0,1,3.83-3.87h.28c1.83,0,3.65.06,5.48.06l4.38,0,4.38,0,3.08,0c4.31,0,4.48.21,4.57,4.4,0,2,0,4,0,5.95,0,.85,0,1.7,0,2.55a.5.5,0,0,0,0,.12c0,1,0,1.94,0,2.91,0,2.21,0,4.5,0,6.75a3.69,3.69,0,0,1-.75,2.76,3.43,3.43,0,0,1-2.55.79l-8.49,0q-5.48,0-10.93.06Zm1-22.51a.5.5,0,0,0-.5.5v17.83a.5.5,0,0,0,.5.5h17.93a.51.51,0,0,0,.36-.15.54.54,0,0,0,.14-.36c0-2.11,0-4.19,0-6.22a77.93,77.93,0,0,0-.37-11.66.51.51,0,0,0-.5-.44ZM973.15,484c-2.56,0-5.11,0-7.67,0H953.25a3,3,0,0,1-2.22-.69,2.94,2.94,0,0,1-.68-2.22c0-6.56,0-13.41,0-20.35a3.07,3.07,0,0,1,.69-2.26,2.91,2.91,0,0,1,2.18-.69h10.89l9,0h0a2.71,2.71,0,0,1,3.19,3.19q0,3.57,0,7.16V471s0,.07,0,.1V474c0,2.26,0,4.52,0,6.79a3.3,3.3,0,0,1-.71,2.46,3.26,3.26,0,0,1-2.39.74Zm-16.77-3.41c1.39,0,2.77,0,4.12.05s2.64,0,3.94,0a51.77,51.77,0,0,0,7.84-.48.5.5,0,0,0,.42-.49V461.76a.5.5,0,0,0-.47-.5c-3.17-.15-6.08-.23-8.92-.23s-5.78.08-8.65.25a.5.5,0,0,0-.47.5v18.29a.53.53,0,0,0,.15.36.52.52,0,0,0,.35.14h1.69ZM986.16,484a3.48,3.48,0,0,1-2.57-.77,3.64,3.64,0,0,1-.76-2.68c.09-6.44.09-12.93,0-19.3a3.78,3.78,0,0,1,.76-2.77,3.25,3.25,0,0,1,2.41-.75h.19c1.26,0,2.52,0,3.78,0l3.09,0h8.59c1.3,0,2.6,0,3.9,0h.14a3.11,3.11,0,0,1,2.31.73,3.29,3.29,0,0,1,.74,2.44V462c0,6.14-.06,12.49,0,18.73a3.38,3.38,0,0,1-.73,2.48,3.8,3.8,0,0,1-2.79.81h-.11c-3.11,0-6.23,0-9.35,0s-6.32,0-9.49.05Zm9.41-23c-3.11,0-6,.13-8.87.38a.5.5,0,0,0-.45.48,172.75,172.75,0,0,0,.09,17.83.51.51,0,0,0,.5.47h17.94a.51.51,0,0,0,.5-.49l0-1a167.76,167.76,0,0,0-.19-16.93.5.5,0,0,0-.47-.46C1001.15,461.11,998.27,461,995.57,461Zm-446.92-9.69c1.73,0,2.71-.26,3.29-.85a3.35,3.35,0,0,0,.68-2.51c-.07-2.54-1.42-2.72-3.62-2.72h-.48c-3.31,0-6.61,0-9.91,0H513.88c-3.27,0-6.53,0-9.79-.05H504a3.37,3.37,0,0,0-2.56.79,3.46,3.46,0,0,0-.61,2.69c.18,2.41,1.58,2.59,3.69,2.59l26,0q9,0,18.08,0ZM549,385c2.41,0,3.72-.48,3.73-3a3.16,3.16,0,0,0-.71-2.31c-.56-.56-1.5-.81-3.09-.81h0q-10.78,0-21.55,0l-22.44,0c-1.58,0-2.78.14-3.46.84a3.2,3.2,0,0,0-.66,2.39c.07,2.43,1.35,2.86,4.09,2.86h34q4.94,0,9.86,0Zm-.2,22.06c2.69,0,3.9-.41,3.92-2.86a3.37,3.37,0,0,0-.74-2.48c-.58-.58-1.55-.85-3.13-.85h-.24c-2.68,0-5.6.07-9.17.07l-6,0H504.71c-2.59,0-3.84.43-3.93,2.92a3.26,3.26,0,0,0,.64,2.42c.65.67,1.8.81,3.49.81l22.66,0q10.56,0,21.11,0Zm.42,22.1a3.7,3.7,0,0,0,2.77-.8,3.26,3.26,0,0,0,.69-2.45c0-2.06-1-2.83-3.38-2.83h-.15l-6.12,0-9.7,0H516.37c-3.89,0-7.78,0-11.74,0-2.55,0-3.84.46-3.85,3a3.07,3.07,0,0,0,.7,2.29c.55.55,1.49.79,3.14.79h0l9.51,0h25.15c3.24,0,6.49,0,9.74.06Zm368.34-18c-1.36,0-2.72,0-4.08,0l-5.93,0a.39.39,0,0,0-.18,0l-5.82,0c-1.29,0-2.58,0-3.86,0h-.17a3.24,3.24,0,0,1-2.4-.74,3.16,3.16,0,0,1-.72-2.33c0-5.76,0-11.52,0-17.27a3.55,3.55,0,0,1,.78-2.63,3,3,0,0,1,2.26-.72h20.39c2.05,0,3,.91,3,2.86V396q0,6,0,12a3.19,3.19,0,0,1-.71,2.34,3.27,3.27,0,0,1-2.4.73Zm-10.82-20.43c-3,0-5.4.09-7.68.29a.52.52,0,0,0-.4.27,8.45,8.45,0,0,0-.86,4.86l0,.44c0,1.06,0,2.11,0,3.23a27.86,27.86,0,0,0,.52,7.34.51.51,0,0,0,.49.38h18.14a.48.48,0,0,0,.36-.15.47.47,0,0,0,.14-.37c0-1.73,0-3.47,0-5.15a48,48,0,0,0-.55-10.54.49.49,0,0,0-.48-.4l-1.64-.05C912,390.8,909.34,390.73,906.69,390.73Zm-474.3-1.83a3,3,0,0,1-2.24-.73,3.53,3.53,0,0,1-.77-2.66c0-3.87,0-7.81,0-11.62V372.8c0-2.2.58-3,2.15-3.05l3.64-.08c1.72-.05,3.49-.1,5.26-.1a60.53,60.53,0,0,1,7.79.44,87.57,87.57,0,0,1,.3,14c0,1-.07,1.95-.09,2.92s-.37,1.9-2.81,1.93c-3.19,0-6.37.05-9.56.05Zm6.56-16a36.1,36.1,0,0,0-5.64.46.51.51,0,0,0-.42.46,49,49,0,0,0,.08,10.79.51.51,0,0,0,.41.42,30.46,30.46,0,0,0,5.51.48h0a55.28,55.28,0,0,0,5.62-.33.49.49,0,0,0,.45-.45,42.24,42.24,0,0,0-.06-10.95.52.52,0,0,0-.41-.42A34.12,34.12,0,0,0,439,372.88Zm-38.36,16.05c-2.56,0-4-.13-4.64-.79s-.76-2.6-.73-5.92c0-.89,0-1.89,0-3s0-2.32,0-3.28c0-3.17,0-4.91.7-5.64s1.89-.7,4.07-.7l2.13,0,2.63,0h.69l2.69,0,1.77,0c2.18,0,3.39.11,4,.69s.69,2.54.64,5.84q0,1.46,0,3.36c0,1.28,0,2.39,0,3.37.06,2.92.09,4.52-.62,5.25s-2.24.81-5.1.81l-2.35,0h-1.71l-2,0Zm4-16.1a17.33,17.33,0,0,0-5.59.85.49.49,0,0,0-.34.51,27.39,27.39,0,0,1,0,3.51c-.14,2.34-.27,4.76.81,7.17a.5.5,0,0,0,.4.3,53.55,53.55,0,0,0,5.39.34,24.93,24.93,0,0,0,5.23-.52.52.52,0,0,0,.4-.43,40.14,40.14,0,0,0,0-10.84.49.49,0,0,0-.44-.43l-.28,0A48.15,48.15,0,0,0,404.62,372.83Zm7.26-23.13H395.75a79.19,79.19,0,0,1-.4-15.61l.08-1.92c.06-1.47,1.56-1.7,2.44-1.71l8,0h5.72a3.11,3.11,0,0,1,2.23.72,3,3,0,0,1,.68,2.2c0,2.2,0,4.4,0,6.6q0,3.54,0,7.08c0,1.81-.84,2.66-2.56,2.66Zm-7.79-15.92a16.09,16.09,0,0,0-4.7.59.5.5,0,0,0-.35.4,27.31,27.31,0,0,0,.13,10.85.5.5,0,0,0,.41.38,35.54,35.54,0,0,0,5.4.46,24.76,24.76,0,0,0,5.71-.66.5.5,0,0,0,.38-.49c0-.93.05-1.86.09-2.78a28.75,28.75,0,0,0-.49-8.27.51.51,0,0,0-.49-.38h0c-.41,0-.81,0-1.22,0-.81,0-1.61,0-2.41-.06S404.9,333.78,404.09,333.78Zm36.08,15.94-3.26,0-3.16,0H432.1c-1.84,0-2.66-.82-2.67-2.58v-5.47c0-2.77,0-5.53,0-8.29a3,3,0,0,1,.68-2.21,3,3,0,0,1,2.24-.71H445.6c2.6,0,2.91,1.36,2.91,2.38,0,1.38,0,2.76.08,4.15a73.5,73.5,0,0,1-.41,12.42C445.13,349.68,442.31,349.72,440.17,349.72Zm-2-16a13,13,0,0,0-5,.86.5.5,0,0,0-.31.43l0,.28a40.32,40.32,0,0,0,.2,10.23.49.49,0,0,0,.39.39,25.83,25.83,0,0,0,5.4.55h0a37.25,37.25,0,0,0,5.49-.44.5.5,0,0,0,.42-.39,29.6,29.6,0,0,0,0-11.34.5.5,0,0,0-.5-.42h0l-1.11,0c-.82,0-1.63-.05-2.45-.09S439,333.73,438.19,333.73Zm-5.66,94.18a3.21,3.21,0,0,1-2.4-.76,3.92,3.92,0,0,1-.76-2.87c.08-3.21.15-7.45,0-11.71a4.15,4.15,0,0,1,.8-3.14,3.38,3.38,0,0,1,2.55-.82l.62,0c.7.05,1.45.07,2.35.07l1.9,0,1.89,0h4.64c2.06,0,3.21.1,3.77.67.77.77.76,2.71.74,6.57v1.74c0,.78,0,1.57,0,2.36,0,1.58,0,3.17,0,4.76a3.2,3.2,0,0,1-.72,2.4,3.25,3.25,0,0,1-2.44.77c-2.4,0-4.74,0-7.08,0-1.91,0-3.82,0-5.73,0Zm6.1-16a37.32,37.32,0,0,0-5.53.37.5.5,0,0,0-.42.51c0,1.29,0,2.52,0,3.72a33.36,33.36,0,0,0,.37,7.13.5.5,0,0,0,.39.4,28,28,0,0,0,5.57.61h0a19.46,19.46,0,0,0,5.85-.87.5.5,0,0,0,.36-.5,35,35,0,0,1,0-3.55,19.94,19.94,0,0,0-.66-7.37.49.49,0,0,0-.47-.34l-2.44,0C440.65,412,439.65,411.92,438.63,411.92Zm-37.83,16c-2.88,0-4.28-.11-4.92-.76s-.69-2.44-.66-5.54c0-.92,0-2,0-3.15v-2.17c0-4.19-.06-6.29.75-7.1.46-.47,1.27-.63,3.1-.63l2,0c1,0,2.18.05,3.53.05H405c1.11,0,2.09,0,3,0l2.13,0c2,0,3.16.11,3.72.68.73.74.71,2.58.66,5.92,0,.92,0,1.94,0,3.1s0,2.3,0,3.25c.05,3.17.07,4.92-.64,5.64s-1.94.73-4.84.73h-2.76Zm3.9-16.06a31.79,31.79,0,0,0-5.12.4.5.5,0,0,0-.41.38,28.79,28.79,0,0,0-.14,11,.52.52,0,0,0,.41.42,30.87,30.87,0,0,0,5.69.62h0a17.36,17.36,0,0,0,5.74-.94.51.51,0,0,0,.34-.52,24.71,24.71,0,0,1,0-3.75,15,15,0,0,0-.78-6.93.52.52,0,0,0-.4-.3A45.24,45.24,0,0,0,404.7,411.88Zm-29.45-22.94-2,0h-6.63c-2.79,0-4.15-.11-4.79-.76s-.73-2.61-.68-6c0-.76,0-1.59,0-2.52,0-1.43,0-2.66,0-3.74-.05-3.18-.07-4.93.63-5.64s1.87-.69,4.19-.69h9.3c2.71,0,4,.1,4.61.71s.67,2.41.63,5.5c0,.87,0,1.84,0,2.93,0,1.27,0,2.4,0,3.38,0,3.38.08,5.24-.69,6S377.79,388.94,375.25,388.94Zm-4.8-16.1a21.17,21.17,0,0,0-5.24.6.49.49,0,0,0-.37.41,38.87,38.87,0,0,0,0,10.8.51.51,0,0,0,.44.44,53,53,0,0,0,5.89.41,25.71,25.71,0,0,0,5.57-.58.5.5,0,0,0,.39-.51c0-1.13,0-2.27.08-3.36a18.53,18.53,0,0,0-.67-7.49.53.53,0,0,0-.42-.33A51.4,51.4,0,0,0,370.45,372.84Zm-5-23.12c-2,0-3.17-.1-3.7-.63-.68-.69-.65-2.48-.61-5.71,0-.84,0-1.78,0-2.84,0-1.5,0-2.79,0-3.91-.06-3.06-.09-4.75.62-5.48s2.07-.76,4.66-.76l2.09,0,2.66,0h.34c1,0,2,0,2.78,0h1.8c2,0,3.2.1,3.76.67.73.74.7,2.63.66,6.07,0,.76,0,1.6,0,2.52,0,1.37,0,2.56,0,3.6,0,3.28.06,5.08-.64,5.8-.56.56-1.77.67-3.95.67h-1.58l-2.31,0h-6.57Zm5.31-16a20.11,20.11,0,0,0-5.93.86.51.51,0,0,0-.35.52,27.63,27.63,0,0,1,0,3.64c-.11,2.33-.23,4.74.86,7.12a.51.51,0,0,0,.41.29c1.91.16,3.5.28,5.21.28h0a27.94,27.94,0,0,0,5.79-.57.5.5,0,0,0,.39-.5c0-1.13,0-2.24,0-3.31a31.09,31.09,0,0,0-.39-7.39.49.49,0,0,0-.4-.39A32.5,32.5,0,0,0,370.79,333.73Zm-6.33,94.19a3.44,3.44,0,0,1-2.58-.82,3.56,3.56,0,0,1-.73-2.71c.05-1.51,0-3.06,0-4.55,0-.69,0-1.39,0-2.08,0-1,0-1.92,0-2.73,0-3.18,0-4.94.71-5.67s2-.73,4.59-.73l3.77,0h7.16a3.16,3.16,0,0,1,2.38.74,3.42,3.42,0,0,1,.76,2.54c-.05,4.91-.05,9,0,12.74a3.32,3.32,0,0,1-.74,2.48,3.22,3.22,0,0,1-2.39.75l-7,0c-1.93,0-3.85,0-5.78,0Zm6.74-16a50,50,0,0,0-5.69.38.51.51,0,0,0-.43.39,24.49,24.49,0,0,0,0,11.23.5.5,0,0,0,.44.38c2,.2,3.88.38,5.76.38a20.61,20.61,0,0,0,5.2-.61.48.48,0,0,0,.36-.39,39.53,39.53,0,0,0,.19-10.23l0-.53a.5.5,0,0,0-.39-.46A25.38,25.38,0,0,0,371.2,411.88ZM1468.51,139.22a10,10,0,0,0,1-1.74l.2-.42q8.55-17.62,17.07-35.25c.35-.74.65-1.52.89-2.15.08-.23.16-.44.24-.62,0-1.35-.38-1.76-.84-2a2.41,2.41,0,0,0-1.13-.31,1.6,1.6,0,0,0-1.14.46,8.45,8.45,0,0,0-1.53,2.39q-8.82,18.06-17.58,36.15a15.1,15.1,0,0,0-.75,1.83,1.91,1.91,0,0,0,1.17,2.69,1.75,1.75,0,0,0,.69.15A2.32,2.32,0,0,0,1468.51,139.22Zm-69.12,33.29a1.48,1.48,0,0,0,1.39-1.59,1.69,1.69,0,0,0-1.13-1.87,15.91,15.91,0,0,0-3.88-.53c-3.07,0-6.14,0-9.21,0h-10.14a.51.51,0,0,1-.5-.5v-1h-4.66l-5.16,0c-3.12,0-5.66,0-8,.09H1358a12.15,12.15,0,0,1-1.53-.13,14.44,14.44,0,0,0-1.57-.13c-1.19,0-2,.33-2,1.95a2.37,2.37,0,0,0,.5,1.81,3.37,3.37,0,0,0,2.36.63q.54,0,1.08,0l1,0h.41c10.31.49,20.81.86,31,1.23l6.19.22,1.47,0A19,19,0,0,0,1399.39,172.51Zm125.06,38.57c-.07-1.65-1.23-2.26-2.57-3l-.78-.42q-15-8.69-30-17.31a24.8,24.8,0,0,0-2.66-1.37,3,3,0,0,0-1.11-.25,1.58,1.58,0,0,0-1.43.83,2,2,0,0,0,.64,2.9,14.93,14.93,0,0,0,1.79,1.12l3.23,1.86q13.79,8,27.59,15.9l.19.1a10.31,10.31,0,0,0,2.89,1.3,2.35,2.35,0,0,0,.51.06C1523.84,212.83,1524.28,211.89,1524.45,211.08Zm-100.89,49.69a10.55,10.55,0,0,0,.36-1.42q3.13-17.48,6.25-35c.21-1.16.33-2.33-.17-3a2.07,2.07,0,0,0-1.51-.69h-.32c-1.42,0-1.75,1.18-2.09,3l-.81,4.3c-.58,3.05-1.16,6.1-1.71,9.16-1,5.46-2,10.91-2.89,16.27l-1.13,6.38c-.21,2.53.86,3,1.81,3.1l.27,0C1422.53,262.9,1423.09,262.28,1423.56,260.77Zm-187.73,212c-2.22,0-3.45-.1-4-.68s-.7-2.44-.68-5.56c0-.81,0-1.72,0-2.73,0-4.18,0-4.26,4.54-4.34,1.58,0,3.16,0,4.74,0h4.43l.7,0,.64,0a2.06,2.06,0,0,1,.94.16c2.72,1.49,2.44,3.62,2.12,6.09a11.41,11.41,0,0,0-.1,3.59,3.25,3.25,0,0,1-.44,2.61,2.82,2.82,0,0,1-2.3.89c-.85,0-1.7,0-2.55,0h-4.08l-2,0Zm4.88-10.1c-.82,0-1.67,0-2.55.07s-1.88.09-2.88.09a.51.51,0,0,0-.48.34,7.48,7.48,0,0,0,.11,5.58.47.47,0,0,0,.38.3,30.26,30.26,0,0,0,4.77.43,16.62,16.62,0,0,0,4.92-.69.49.49,0,0,0,.34-.38l.06-.32a6.51,6.51,0,0,0-.31-4.68.48.48,0,0,0-.3-.24A13.73,13.73,0,0,0,1240.71,462.7Zm-33.11,10.11h-11.15a3.37,3.37,0,0,1-2.53-.79,3.08,3.08,0,0,1-.62-2.38q0-.33,0-.66c0-.13,0-.25,0-.38,0-1,0-1.9,0-2.71,0-3.31,0-5.13.68-5.83.52-.53,1.62-.62,3.73-.62h4.78c4.44,0,7.22.09,8.34,1.31s1,3.57.54,8.71c-.22,2.44-1.08,3.35-3.16,3.35Zm-6.31-10.08a21.07,21.07,0,0,0-3.82.29.5.5,0,0,0-.37.32,6.27,6.27,0,0,0,.11,5.54.52.52,0,0,0,.4.27l.17,0a43.69,43.69,0,0,0,4.73.35,14.94,14.94,0,0,0,4.51-.63.5.5,0,0,0,.31-.29,6.37,6.37,0,0,0-.24-5.52.49.49,0,0,0-.45-.29h-1c-.74,0-1.47,0-2.19,0Zm-31.45,10.09q-2.73-.06-5.46-.06c-1.91,0-3.83,0-5.75.05h-.1a3.18,3.18,0,0,1-2.42-.77,3.11,3.11,0,0,1-.64-2.38c0-.23,0-.45,0-.68v-.36c0-.8,0-1.53,0-2.2,0-3.74,0-5.62.68-6.35.52-.53,1.56-.62,3.56-.62l2.87,0,1.77,0h.64c4.21,0,6.85.09,7.92,1.24s1,3.82.58,8.73c-.2,2.48-1.12,3.4-3.42,3.4Zm-5.2-10.08c-1.76,0-3.56.1-5.08.2a.49.49,0,0,0-.46.4l0,.15c-.39,2-.7,3.61.4,5.36a.49.49,0,0,0,.34.22,27.63,27.63,0,0,0,4.63.45h0a14.93,14.93,0,0,0,5-.81.49.49,0,0,0,.34-.45c0-.36,0-.71.08-1.05a5.26,5.26,0,0,0-.76-4,.5.5,0,0,0-.35-.21A32.49,32.49,0,0,0,1164.64,462.74ZM1132,472.82c-2,0-4-.05-6-.05-1.72,0-3.45,0-5.17,0h-.11a3.15,3.15,0,0,1-2.37-.75,3.24,3.24,0,0,1-.71-2.42,4.87,4.87,0,0,0,0-.54c0-.16,0-.32,0-.48,0-1.22,0-2.28,0-3.21,0-6,0-6,4.5-6l2.93,0h1.43l1.47,0c1,0,1.94,0,2.72-.05l1.62,0c1.46,0,2.14.15,2.53.54.79.8.78,3.13.74,7.78v1.73c0,2.4-1,3.38-3.4,3.38Zm-5.56-10.12a22.7,22.7,0,0,0-4.66.44.49.49,0,0,0-.38.35c-.52,1.73-.9,3.58.46,5.57a.52.52,0,0,0,.38.21c1.34.11,2.79.21,4.27.21a26,26,0,0,0,4.89-.43.51.51,0,0,0,.39-.37c.48-1.93.76-3.56-.29-5.44a.51.51,0,0,0-.38-.25A42.61,42.61,0,0,0,1126.39,462.7Zm288.16-317.12a1.83,1.83,0,0,0,.78-1.27,3.6,3.6,0,0,0-1.14-2.44q-10.18-12-20.39-23.93a3.21,3.21,0,0,0-2.11-1.4,1.8,1.8,0,0,0-1.68.92c-.8,1.34-.1,2.34.89,3.5l20,23.58c.91,1.07,1.66,1.57,2.38,1.57A2,2,0,0,0,1414.55,145.58Zm73.83,14.75a7.85,7.85,0,0,0,1-.16l.73-.18q12-3,23.92-6.05a3.47,3.47,0,0,0,2.24-1.32,2,2,0,0,0,.08-1.59,1.68,1.68,0,0,0-1.86-1.3,5.66,5.66,0,0,0-1.36.19c-4,1-8,2-11.86,3l-3.9,1c-3.24.82-6.58,1.67-9.85,2.55-1.9.51-2,1.57-1.94,2.33.12,1.18.74,1.62,2.38,1.65Zm-12.67,81.36c.77-.32,1.07-1,1-2.2,0-.11-.06-.24-.09-.38a8.83,8.83,0,0,0-.38-1.21q-4.35-10-8.75-20c-.59-1.35-1.17-2.46-2.21-2.46a2.26,2.26,0,0,0-.83.18,2,2,0,0,0-1.23,1c-.33.81.06,1.94.54,3l2.25,5.21q2.19,5.09,4.41,10.18c.86,2,1.75,4,2.8,5.94a1.59,1.59,0,0,0,1.46.91A2.47,2.47,0,0,0,1475.71,241.69Zm-39.07-109.51a2.06,2.06,0,0,0,1.54-.49c.62-.65.57-1.93.53-3.16,0,0,0-.61,0-.69s-.46-5.45-.46-5.45c-.4-4.82-.78-9.4-1.18-14-.18-2.11-.42-3.49-2.12-3.49h-.23a1.93,1.93,0,0,0-1.4.57c-.59.69-.54,2-.44,3.18q.8,9.87,1.68,19.74l0,.41c.17,2.1.39,3.37,2.08,3.37Zm-48.87,80.09,6.4-3.15,12.36-6c1.14-.56,1.82-1.09,1.91-2.13a1.82,1.82,0,0,0-.42-1.43,2,2,0,0,0-1.47-.55,4.39,4.39,0,0,0-1.8.44c-5.64,2.62-11.32,5.41-16.8,8.1l-2,1c-.89.44-1.87,1-2.13,1.75a1.86,1.86,0,0,0,.22,1.46,1.77,1.77,0,0,0,1.67,1.18A5,5,0,0,0,1387.77,212.27ZM1220.38,431.33c-.86,0-1.71,0-2.55,0s-1.67,0-2.49,0l-1.28,0h-.14c-1.63,0-2.38-.82-2.43-2.66v-.32c0-.23,0-.47,0-.7-.31-5.94-.21-9,1.22-10.53.89-.95,2.41-1.35,5.08-1.35,1.38,0,3.1.1,5.76.35,2.31.21,3.12.94,3.11,2.78,0,1.09,0,2.17,0,3.27a45.74,45.74,0,0,1-.39,8.75A32.35,32.35,0,0,1,1220.38,431.33ZM1219,419.51a7.27,7.27,0,0,0-3.91,1,.51.51,0,0,0-.23.48,14.3,14.3,0,0,1,0,2.07,8.16,8.16,0,0,0,.52,4.13.53.53,0,0,0,.25.24,7.59,7.59,0,0,0,3.18.64,24.49,24.49,0,0,0,3.38-.34l.2,0a.51.51,0,0,0,.41-.36,14.23,14.23,0,0,0,.17-7.12.49.49,0,0,0-.42-.39l-.5-.08A21.52,21.52,0,0,0,1219,419.51Zm-.2-23.65c-.74,0-1.49,0-2.23,0-5-.08-5-.08-5.07-4.89,0-.69,0-1.39,0-2.08V386.4c0-5.91,0-5.91,5.07-5.91h4l1.63,0c2.09,0,3.25.11,3.82.69.78.78.77,2.71.75,6.56v1.72c0,.62,0,1.23,0,1.84s0,1.14,0,1.71c0,2-.93,2.84-3,2.85h-1.72Zm.18-11.93a10,10,0,0,0-3.48.61.5.5,0,0,0-.32.38c-.41,2.44-.68,4.64.27,6.91a.51.51,0,0,0,.37.3,17.91,17.91,0,0,0,3.43.41h0a8.35,8.35,0,0,0,3.29-.63.46.46,0,0,0,.28-.3,11.47,11.47,0,0,0,0-6.86.5.5,0,0,0-.37-.36A15,15,0,0,0,1219,383.93Zm-2.41-59.12c-2.55,0-3.87-.1-4.45-.68s-.62-2.13-.61-4.83c0-.71,0-1.5,0-2.38v-.64c0-.46,0-.92,0-1.38.06-5.36.06-5.36,4.46-5.36h2l2.65,0,1.73,0c1.92,0,3.07.11,3.62.66.75.76.74,2.62.72,6.34,0,.75,0,1.56,0,2.46,0,3,0,4.51-.64,5.14s-2.16.65-5,.67l-1.52,0Zm2.53-11.88a15.65,15.65,0,0,0-3.66.43.5.5,0,0,0-.38.44l0,.42a14.84,14.84,0,0,0,.3,6.46.51.51,0,0,0,.37.33,17.66,17.66,0,0,0,3.56.45,9.12,9.12,0,0,0,3.39-.63.51.51,0,0,0,.3-.34,12.83,12.83,0,0,0-.13-7,.49.49,0,0,0-.43-.37C1221.19,313,1220.17,312.93,1219.07,312.93Zm-38.61,118.41a30.43,30.43,0,0,1-5.94-.5,39.87,39.87,0,0,1-.45-9c0-1.06.06-2.11.06-3.16,0-1.71.87-2.53,2.75-2.58l.54,0c1.76-.17,3.23-.25,4.48-.25,3.38,0,5.41.6,6.57,1.93,1.5,1.73,1.77,4.91.91,11-.26,1.83-.83,2.48-2.19,2.48h-.92c-1,0-1.92,0-2.88.06S1181.44,431.34,1180.46,431.34Zm1.1-11.84a7.38,7.38,0,0,0-3.91,1,.49.49,0,0,0-.25.49,10.63,10.63,0,0,1,0,1.95,6.37,6.37,0,0,0,1.06,4.79.51.51,0,0,0,.37.2l1,.06c.69,0,1.41.1,2.15.1a11.93,11.93,0,0,0,3-.36.49.49,0,0,0,.32-.26c1-2.12,1.05-4.4.08-7.42a.51.51,0,0,0-.47-.35c-.53,0-1.06,0-1.6-.08S1182.18,419.5,1181.56,419.5Zm-.15-23.6c-3.83,0-6.06-.15-6.86-1-.62-.64-.58-1.88-.51-3.92,0-.86.06-1.86,0-3,0-3.72,0-5.77.81-6.64s2.94-.87,6.73-.87h1.82c3.1,0,4.63.07,5.29.73s.65,2.23.62,5.06c0,.63,0,1.33,0,2.09,0,1,0,2,0,2.76,0,2,.07,3.26-.53,3.87-.75.78-2.78.91-7,.92Zm.23-12a9.64,9.64,0,0,0-3.55.67.49.49,0,0,0-.3.33,8.91,8.91,0,0,0,.42,7.1.51.51,0,0,0,.4.26l.87.07c.8.07,1.62.14,2.45.14a9.7,9.7,0,0,0,3.69-.66.5.5,0,0,0,.31-.47c0-.61,0-1.22.09-1.81a8.1,8.1,0,0,0-.65-4.89.47.47,0,0,0-.31-.24A13,13,0,0,0,1181.64,383.92Zm-.89-59.08c-3.52,0-5.45-.14-6.18-.89-.59-.6-.57-1.83-.53-3.86,0-.9,0-1.94,0-3.16s0-2.11,0-3c.13-4.12.3-4.28,4.63-4.38.77,0,1.53,0,2.3,0l3.28,0c5,.07,5,.07,5.09,5.35,0,.71,0,1.43,0,2.14v.39c0,.88,0,1.66,0,2.35,0,2.36.05,3.65-.55,4.26-.76.77-2.87.79-7.07.81Zm.89-11.94a10.69,10.69,0,0,0-3.82.65.51.51,0,0,0-.33.47c0,.56,0,1.11-.09,1.66a8.91,8.91,0,0,0,.61,5.07.53.53,0,0,0,.35.27,18.43,18.43,0,0,0,3.54.45,8.06,8.06,0,0,0,3.77-.89.48.48,0,0,0,.27-.41l0-.58a17.24,17.24,0,0,0-.32-6,.5.5,0,0,0-.42-.37A27.09,27.09,0,0,0,1181.64,312.9Zm-42.06,118.39a2.85,2.85,0,0,1-2.12-.66,3,3,0,0,1-.65-2.18c0-2.39,0-4.78,0-7.17v-2.46c0-1.78.82-2.61,2.63-2.69l.33,0,.42,0h.19a13.8,13.8,0,0,0,1.49.07c.82,0,1.67-.05,2.48-.11s1.62-.11,2.41-.11a8,8,0,0,1,4.7,1.23c.85.63.94,8.75-.33,14.1l-6.7,0q-2.4,0-4.77,0Zm4.19-11.76a5.56,5.56,0,0,0-3.19.88.47.47,0,0,0-.22.38c0,.44-.08.88-.13,1.31-.2,1.81-.41,3.68.78,5.46a.47.47,0,0,0,.33.21,17.14,17.14,0,0,0,3,.32h0a9.94,9.94,0,0,0,3.62-.68.5.5,0,0,0,.32-.42c0-.4.09-.8.13-1.19.25-2,.49-3.92-.85-5.88a.49.49,0,0,0-.41-.21h-.25c-.5,0-1,0-1.53-.09S1144.32,419.53,1143.77,419.53Zm-1.1-23.64c-3,0-4.6-.12-5.27-.8s-.65-2.09-.62-4.67c0-.74,0-1.57,0-2.51v-2c0-5.3.06-5.4,5.1-5.4h1l2.69,0h1.78c2.14,0,3.34.1,3.92.69.78.79.77,2.79.75,6.42,0,.72,0,1.52,0,2.4,0,5.88,0,5.88-6.11,5.9h-1Zm1.56-11.94a11.57,11.57,0,0,0-3.41.5.51.51,0,0,0-.35.42c0,.33-.08.66-.13,1-.3,2.12-.57,4.13.68,6.13a.46.46,0,0,0,.35.23l.57.08a19.48,19.48,0,0,0,2.65.25,6.69,6.69,0,0,0,3.46-.87.47.47,0,0,0,.24-.38l.12-.86c.26-1.94.53-3.95-.72-6a.49.49,0,0,0-.37-.24l-.16,0A27.43,27.43,0,0,0,1144.23,384Zm2-59.13-2,0h-.21c-3.62-.05-5.61-.08-6.44-.93s-.83-2.88-.84-6.57v-.87c0-3.68,0-5.52.73-6.26.55-.55,1.68-.64,3.85-.64h4.23c6.36,0,6.36,0,6.4,7.53,0,1.1,0,2.05,0,2.89,0,2.14,0,3.44-.55,4.06S1149,324.82,1146.27,324.82ZM1144,312.89a6.79,6.79,0,0,0-3.4.82.48.48,0,0,0-.25.38,17.94,17.94,0,0,0,.18,6.52.5.5,0,0,0,.37.37,16.76,16.76,0,0,0,3.57.48,8.48,8.48,0,0,0,3.47-.71.52.52,0,0,0,.29-.34,11.78,11.78,0,0,0-.25-7,.49.49,0,0,0-.47-.34c-.56,0-1.14-.05-1.7-.1A18,18,0,0,0,1144,312.89Zm71.39,47.36c-1.66,0-2.72-.1-3.24-.62-.75-.76-.72-2.68-.67-6.5,0-1.39,0-3,0-5a3.18,3.18,0,0,1,.69-2.34,2.85,2.85,0,0,1,2.09-.66H1224a2.71,2.71,0,0,1,2,.66,2.59,2.59,0,0,1,.6,1.95c0,1.25,0,2.52.06,3.74a27.08,27.08,0,0,1-.5,8,5,5,0,0,1-2.79.74h-.81c-.69,0-1.34,0-1.95,0-1.25,0-2.34,0-3.29,0Zm3.53-11.8a12.53,12.53,0,0,0-3.52.45.52.52,0,0,0-.36.43l0,.39a15.4,15.4,0,0,0,.27,6.53.5.5,0,0,0,.39.34,19.82,19.82,0,0,0,3.41.31,17.55,17.55,0,0,0,3.5-.36.5.5,0,0,0,.4-.42l.07-.49c.33-2.31.64-4.49-.6-6.85a.51.51,0,0,0-.44-.26h-.27c-.46,0-.91,0-1.37,0S1219.41,348.45,1218.91,348.45Zm-39.15,11.8c-3.06,0-4.43-.1-5-.73s-.66-2.26-.64-5.13c0-.58,0-1.22,0-1.91,0-.36,0-.71,0-1.07V350c0-4.64.09-4.69,4.59-4.8,1.2,0,2.4,0,3.6,0,1,0,2,0,3,0,4,.13,4,.17,4.13,4.23,0,.82,0,1.64,0,2.46v1.07c0,.79,0,1.51,0,2.15,0,2.49,0,3.86-.57,4.47s-2.53.71-6.19.71Zm1.78-11.83a10.14,10.14,0,0,0-3.49.56.47.47,0,0,0-.32.35,12.45,12.45,0,0,0,0,6.8.49.49,0,0,0,.37.34,16.13,16.13,0,0,0,3.65.44h0a14.48,14.48,0,0,0,3.72-.5.5.5,0,0,0,.36-.42,18.07,18.07,0,0,0-.19-6.91.49.49,0,0,0-.43-.38l-.67-.07A28.58,28.58,0,0,0,1181.54,348.42Zm-37,12c-3.62,0-5.75-.63-6.9-2-1.57-1.92-1.63-5.53-.19-12.85a27.07,27.07,0,0,1,5.54-.49c1.3,0,2.64.05,3.93.11,1,0,2,.08,3,.1,1.58,0,1.93,1.21,2,2.2,0,3.22,0,6.39,0,10.16,0,1.77-.83,2.59-2.56,2.59h-.26l-.41,0C1147.06,360.35,1145.7,360.42,1144.52,360.42Zm-.36-12a13.46,13.46,0,0,0-3.28.39.5.5,0,0,0-.37.36,16.91,16.91,0,0,0-.07,7,.5.5,0,0,0,.41.42,21.35,21.35,0,0,0,3.44.3h0a18.81,18.81,0,0,0,3.55-.35.5.5,0,0,0,.39-.39,15.84,15.84,0,0,0,0-7,.49.49,0,0,0-.42-.38A26,26,0,0,0,1144.16,348.44Zm-440,110q-31.49,0-63,0c-5.48,0-5.48,0-5.51-5.44v-1.42c0-2.36,0-4.81,0-7.21.08-4,.08-4.08,4.22-4.09l18.71,0h47.81q9.78,0,19.57,0c4.69,0,4.69,0,4.77,4.61,0,1.56,0,3.12,0,4.68,0,1.8,0,3.65,0,5.48a3.51,3.51,0,0,1-.74,2.64,3.31,3.31,0,0,1-2.45.77h-.3c-.57,0-1.15,0-1.72,0-.74,0-1.47,0-2.21,0l-2.18,0Zm-64.44-14.65a.5.5,0,0,0-.5.47c0,.6-.08,1.2-.13,1.78-.22,2.82-.43,5.48.59,8.28a.51.51,0,0,0,.47.33h86.27a.51.51,0,0,0,.48-.38,24.23,24.23,0,0,0,.24-10.06.5.5,0,0,0-.49-.42Zm18.83-77.61H641.09c-5.35,0-5.35,0-5.38-5.54,0-1.25,0-2.5,0-3.75,0-2,0-3.94,0-5.91a3.1,3.1,0,0,1,.66-2.28,2.92,2.92,0,0,1,2.16-.71l1.69,0c1,0,1.92,0,2.88,0q41,0,82,0c2.84,0,4.4,0,5,.64s.64,2.26.66,5.17c0,2.37,0,4.74,0,7.1-.06,5.3-.06,5.3-5.15,5.31q-8.32,0-16.66,0Zm-18.77-14.31a.51.51,0,0,0-.5.43,36.08,36.08,0,0,0,0,9.8.5.5,0,0,0,.5.44h86.82a.51.51,0,0,0,.5-.43c.49-3.54.81-6.73-.27-9.9a.51.51,0,0,0-.47-.34Zm1.93,75.84c-2.9,0-4.66,0-5.34-.69s-.68-2.3-.69-5.28v-.32c0-2.27,0-4.53,0-6.8,0-5.07,0-5.07,5.34-5.07h84.72c5,0,5,0,5,4.87,0,1.28,0,2.57,0,3.85,0,1.91,0,3.89,0,5.84a3.73,3.73,0,0,1-.75,2.82,3.12,3.12,0,0,1-2.35.76h-86Zm-2.21-14.45a.5.5,0,0,0-.5.51c0,1.09,0,2.15,0,3.18a29.6,29.6,0,0,0,.33,6.51.5.5,0,0,0,.49.4h86.95a.49.49,0,0,0,.5-.47c0-.61.08-1.21.13-1.81.21-2.79.4-5.42-.53-8a.5.5,0,0,0-.47-.33Zm87.29-77.74c-4.7,0-9.8-.06-16.05-.06h-11l-10.16,0H640.67c-4.92,0-4.92,0-5-5,0-1.19,0-2.37,0-3.56,0-2,0-4.08-.05-6.12a3.7,3.7,0,0,1,.71-2.82,3.42,3.42,0,0,1,2.59-.81h.44c.87,0,1.75.06,2.63.06l2.27,0,2.26,0h78.5c2.85,0,4.42,0,5.06.64s.65,2.24.67,5.12c0,1,0,2,0,3,0,1.86,0,3.78.05,5.67a3.91,3.91,0,0,1-.71,3c-.59.62-1.6.9-3.18.9Zm-86.9-14.54a.5.5,0,0,0-.49.41,27.37,27.37,0,0,0,0,10.13.5.5,0,0,0,.49.42H726.7a.5.5,0,0,0,.5-.47q.07-.92.15-1.8c.28-3.06.51-5.71-.56-8.38a.5.5,0,0,0-.47-.31Zm27.26,75.91-26.23,0c-5.21,0-5.21,0-5.24-5.19v-1.4c0-2.54,0-5.17,0-7.75.1-3.76.1-3.76,4.5-3.77h42.69a.53.53,0,0,0,.18,0h24.24q9.31,0,18.63,0c4.75,0,4.75,0,4.82,4.59,0,2.6,0,5.43,0,8.64-.06,4.83-.06,4.83-5.15,4.84H667.18Zm-27.66-14.3a.51.51,0,0,0-.36.15.48.48,0,0,0-.14.37c.05,1.16,0,2.28,0,3.36a21.56,21.56,0,0,0,.46,6.43.52.52,0,0,0,.49.37h86.72a.51.51,0,0,0,.5-.46l.11-1.11c.33-3.24.61-6-.45-8.79a.5.5,0,0,0-.46-.32Zm1143.91-15.86a39.49,39.49,0,0,1-7.7-.67,85.62,85.62,0,0,1-.27-10.67c0-1.32,0-2.64,0-4a2.75,2.75,0,0,1,.66-2,3.35,3.35,0,0,1,2.43-.76h2.21l4.74,0c1.6,0,3.21,0,4.81,0h.11a3,3,0,0,1,2.24.71,3.51,3.51,0,0,1,.73,2.55c0,2,0,4.06,0,6.08s0,3.74,0,5.61c0,2-.51,2.77-1.84,2.83l-2.11.09C1787.47,366.59,1785.44,366.69,1783.43,366.69Zm.7-14.81a21.23,21.23,0,0,0-4.67.47.49.49,0,0,0-.39.43l-.06.45c-.38,3.19-.75,6.2.42,9.28a.47.47,0,0,0,.4.32,38.55,38.55,0,0,0,4.86.32h0a32.66,32.66,0,0,0,4.63-.33.5.5,0,0,0,.43-.44,33.56,33.56,0,0,0-.19-9.82.49.49,0,0,0-.46-.41C1787.37,352,1785.74,351.88,1784.13,351.88ZM1713.5,414c-2.92,0-4.32-.11-4.93-.73s-.61-2.13-.55-4.82c0-1.38.07-3.1,0-5.2,0-1.75,0-3.53,0-5.25,0-.79,0-1.58,0-2.37,0-1.41,0-2.81,0-4.22,0-3.29,0-6.7,0-10.05a3.7,3.7,0,0,1,.75-2.76,3.2,3.2,0,0,1,2.4-.75h.22c1.32,0,2.66.06,4,.06s2.84,0,4.2-.07h.27a3.33,3.33,0,0,1,2.48.79,4.26,4.26,0,0,1,.86,3.1c-.08,10.12-.09,19.45,0,28.52a4,4,0,0,1-.82,2.94,3.82,3.82,0,0,1-2.78.81h-2.24Zm1.92-32.83a11,11,0,0,0-3.43.54.5.5,0,0,0-.35.48v27.42a.48.48,0,0,0,.35.47,11.29,11.29,0,0,0,3.58.65,8.56,8.56,0,0,0,3.56-.79.49.49,0,0,0,.3-.45V382.12a.51.51,0,0,0-.39-.49A17.13,17.13,0,0,0,1715.42,381.19ZM1736.09,414c-2.82,0-4.28-.11-4.91-.75s-.65-2.28-.6-5.16c0-1.26.05-2.83,0-4.68s0-3.58,0-5.37v-2.26c0-1.42,0-2.84,0-4.25,0-3.11,0-6.33,0-9.49.08-3.88.28-4.07,4.31-4.16l2.32,0h5.33a3.4,3.4,0,0,1,2.49.75,3.29,3.29,0,0,1,.73,2.43c0,10.13-.06,20.07,0,29.55a3.52,3.52,0,0,1-.76,2.6,3.7,3.7,0,0,1-2.69.79h-6.24Zm1.47-32.79a6.68,6.68,0,0,0-3,.56.5.5,0,0,0-.28.45V409.7a.48.48,0,0,0,.36.48,12.88,12.88,0,0,0,3.63.58,9.12,9.12,0,0,0,3-.51.51.51,0,0,0,.32-.35c1.48-5.88,1-25-.67-28.44a.5.5,0,0,0-.44-.28h-.08a8.85,8.85,0,0,1-1.13.07l-.86,0Zm-3.48,105.28a1.76,1.76,0,0,0,1.31-.4c.47-.5.4-1.52.34-2.51a10,10,0,0,1,0-1.73,7.53,7.53,0,0,0-.32-2.79,1.24,1.24,0,0,0-1.36-1h0a1.3,1.3,0,0,0-1.34,1.07,17.07,17.07,0,0,0-.29,2c0,.26-.05.51-.08.76a9.6,9.6,0,0,1,.11,1.87c0,1.88.1,2.65,1.48,2.7Zm-819.31,5.92c.38,0,1.52,0,1.65-1.8a35.37,35.37,0,0,0,.08-3.95c0-.27,0-.55,0-.83,0-1.93-.17-2.78-1.67-2.78h-.17c-1.25.05-1.4.78-1.45,2.43,0,.38,0,.75-.06,1.09a4.54,4.54,0,0,0,0,.78v1.29c0,.15,0,1,.11,1.84.12,1.37.55,1.91,1.52,1.92Zm-733.18-1.21a1.41,1.41,0,0,0,1.47-1.23,15.7,15.7,0,0,0,.27-2c0-.25,0-.49.06-.61,0-.31,0-.59,0-.86a13.31,13.31,0,0,0-.1-1.36c-.19-1.38-.62-1.9-1.65-1.92-.7,0-1.36.22-1.46,1.86a34.4,34.4,0,0,0,0,4.42c.1,1.39.76,1.6,1.25,1.64ZM1472.91,385.83c1-1,7.75-5.62,8.64-7.79.53-1.31-.16-9.61-.18-10.63,0-2-1.11-2-1.46-2.06h-.18a1.5,1.5,0,0,0-1.2.48,3.73,3.73,0,0,0-.36,1.62l.35,9.84-7,5.43a3.69,3.69,0,0,0-.54.6c-.62.95-.65,1.57-.11,2.17a1.85,1.85,0,0,0,1.28.65A1,1,0,0,0,1472.91,385.83Zm446.41,154.83H0v3.5H1919.32Z"/></g></g></svg>